<svg width="64" height="69" viewBox="0 0 64 69" fill="none" xmlns="http://www.w3.org/2000/svg">
<path d="M54.2077 16.8914C57.4547 21.5399 59.3593 27.1954 59.3593 33.2958C59.3593 49.1348 46.5183 61.9762 30.6789 61.9762C14.8396 61.9762 1.99854 49.1348 1.99854 33.2958C1.99854 17.4571 14.8396 4.61572 30.6789 4.61572C36.585 4.61572 42.0743 6.40099 46.6364 9.46182" fill="white"/>
<path d="M54.2077 16.8914C57.4547 21.5399 59.3593 27.1954 59.3593 33.2958C59.3593 49.1348 46.5183 61.9762 30.6789 61.9762C14.8396 61.9762 1.99854 49.1348 1.99854 33.2958C1.99854 17.4571 14.8396 4.61572 30.6789 4.61572C36.585 4.61572 42.0743 6.40099 46.6364 9.46182" stroke="#3A60AB" stroke-width="3" stroke-miterlimit="10" stroke-linecap="round" stroke-linejoin="round"/>
<path d="M30.6792 53.1872C19.6948 53.1872 10.7881 44.2805 10.7881 33.2961C10.7881 22.3117 19.6948 13.4053 30.6792 13.4053C41.6637 13.4053 50.5704 22.312 50.5704 33.2964C50.5704 44.2809 41.6637 53.1872 30.6792 53.1872Z" fill="#EFEFEF" stroke="#3A60AB" stroke-width="3" stroke-miterlimit="10" stroke-linecap="round" stroke-linejoin="round"/>
<path d="M30.6799 44.3989C24.55 44.3989 19.5776 39.4266 19.5776 33.2967C19.5776 27.1669 24.55 22.1948 30.6799 22.1948C36.8097 22.1948 41.7821 27.1672 41.7821 33.297C41.7821 39.4269 36.8097 44.3989 30.6799 44.3989Z" fill="white" stroke="#2EB370" stroke-width="3" stroke-miterlimit="10" stroke-linecap="round" stroke-linejoin="round"/>
<path d="M30.6801 35.61C29.4049 35.61 28.3672 34.5722 28.3672 33.297C28.3672 32.0221 29.4049 30.9844 30.6801 30.9844C31.9554 30.9844 32.9931 32.0221 32.9931 33.297C32.9931 34.5722 31.9554 35.61 30.6801 35.61Z" fill="#EFEFEF" stroke="#FFCA4D" stroke-width="3" stroke-miterlimit="10" stroke-linecap="round" stroke-linejoin="round"/>
<path d="M19.6309 59.8503L14.2109 67.3051" stroke="#3A60AB" stroke-width="3" stroke-miterlimit="10" stroke-linecap="round" stroke-linejoin="round"/>
<path d="M41.7275 59.8503L47.1478 67.3051" stroke="#3A60AB" stroke-width="3" stroke-miterlimit="10" stroke-linecap="round" stroke-linejoin="round"/>
<path d="M55.7549 7.94067L30.54 33.1559" stroke="#FFCA4C" stroke-width="3" stroke-miterlimit="10" stroke-linecap="round" stroke-linejoin="round"/>
<path d="M46.271 10.0228L47.4275 16.2688L55.7554 7.9408L54.599 1.69482L46.271 10.0228Z" stroke="#FFCA4C" stroke-width="3" stroke-miterlimit="10" stroke-linecap="round" stroke-linejoin="round"/>
<path d="M50.4331 5.85815L51.5899 11.796" stroke="#FFCA4C" stroke-width="3" stroke-miterlimit="10" stroke-linecap="round" stroke-linejoin="round"/>
<path d="M53.6737 17.4251L47.4277 16.2686L55.7557 7.94067L62.0017 9.09748L53.6737 17.4251Z" stroke="#FFCA4C" stroke-width="3" stroke-miterlimit="10" stroke-linecap="round" stroke-linejoin="round"/>
<path d="M57.8372 13.2625L51.8994 12.1057" stroke="#FFCA4C" stroke-width="3" stroke-miterlimit="10" stroke-linecap="round" stroke-linejoin="round"/>
</svg>
