<svg width="23" height="23" viewBox="0 0 23 23" fill="none" xmlns="http://www.w3.org/2000/svg">
<path d="M19.5489 11.54L13.3614 17.7275C13.2324 17.8565 13.0574 17.929 12.875 17.929C12.6926 17.929 12.5176 17.8565 12.3886 17.7275C12.2596 17.5985 12.1871 17.4235 12.1871 17.2411C12.1871 17.0587 12.2596 16.8837 12.3886 16.7547L17.403 11.7411H3.9375C3.75516 11.7411 3.5803 11.6687 3.45136 11.5397C3.32243 11.4108 3.25 11.2359 3.25 11.0536C3.25 10.8713 3.32243 10.6964 3.45136 10.5675C3.5803 10.4385 3.75516 10.3661 3.9375 10.3661H17.403L12.3886 5.35251C12.2596 5.22351 12.1871 5.04854 12.1871 4.8661C12.1871 4.68367 12.2596 4.5087 12.3886 4.3797C12.5176 4.2507 12.6926 4.17822 12.875 4.17822C13.0574 4.17822 13.2324 4.2507 13.3614 4.3797L19.5489 10.5672C19.6128 10.631 19.6635 10.7069 19.6981 10.7903C19.7327 10.8738 19.7505 10.9633 19.7505 11.0536C19.7505 11.144 19.7327 11.2334 19.6981 11.3169C19.6635 11.4003 19.6128 11.4762 19.5489 11.54Z" fill="#243461"/>
</svg>
