<svg width="40" height="41" viewBox="0 0 40 41" fill="none" xmlns="http://www.w3.org/2000/svg">
<path d="M36.1953 30.4404L31.0094 5.78419C30.9423 5.46176 30.8122 5.15575 30.6265 4.88376C30.4408 4.61176 30.2032 4.37914 29.9273 4.19924C29.6515 4.01935 29.3428 3.89574 29.019 3.8355C28.6952 3.77527 28.3627 3.7796 28.0406 3.84826L20.7266 5.42013C20.0796 5.56179 19.5148 5.95315 19.1548 6.50911C18.7949 7.06506 18.6691 7.74063 18.8047 8.38888L23.9906 33.0451C24.1062 33.6077 24.4119 34.1133 24.8564 34.4769C25.3009 34.8406 25.857 35.0401 26.4313 35.042C26.6088 35.0418 26.7858 35.0229 26.9594 34.9858L34.2734 33.4139C34.9212 33.2719 35.4866 32.8797 35.8465 32.3228C36.2065 31.7659 36.3319 31.0893 36.1953 30.4404ZM21.25 7.87794C21.25 7.86857 21.25 7.86388 21.25 7.86388L28.5625 6.30138L29.0828 8.78107L21.7703 10.3545L21.25 7.87794ZM22.2844 12.7951L29.6 11.2248L30.1219 13.7092L22.8125 15.2811L22.2844 12.7951ZM23.3219 17.7279L30.6375 16.1561L32.7156 26.0373L25.4 27.6092L23.3219 17.7279ZM33.75 30.9701L26.4375 32.5326L25.9172 30.0529L33.2297 28.4795L33.75 30.9561C33.75 30.9654 33.75 30.9701 33.75 30.9701ZM16.25 5.04201H8.75C8.08696 5.04201 7.45107 5.3054 6.98223 5.77424C6.51339 6.24308 6.25 6.87897 6.25 7.54201V32.542C6.25 33.205 6.51339 33.8409 6.98223 34.3098C7.45107 34.7786 8.08696 35.042 8.75 35.042H16.25C16.913 35.042 17.5489 34.7786 18.0178 34.3098C18.4866 33.8409 18.75 33.205 18.75 32.542V7.54201C18.75 6.87897 18.4866 6.24308 18.0178 5.77424C17.5489 5.3054 16.913 5.04201 16.25 5.04201ZM8.75 7.54201H16.25V10.042H8.75V7.54201ZM8.75 12.542H16.25V27.542H8.75V12.542ZM16.25 32.542H8.75V30.042H16.25V32.542Z" fill="white"/>
</svg>
