<svg width="24" height="25" viewBox="0 0 24 25" fill="none" xmlns="http://www.w3.org/2000/svg">
<path d="M23.25 20.3911H21.75V9.89111C21.9489 9.89111 22.1397 9.8121 22.2803 9.67144C22.421 9.53079 22.5 9.34003 22.5 9.14111C22.5 8.9422 22.421 8.75144 22.2803 8.61078C22.1397 8.47013 21.9489 8.39111 21.75 8.39111H17.25V5.39111C17.4489 5.39111 17.6397 5.3121 17.7803 5.17144C17.921 5.03079 18 4.84003 18 4.64111C18 4.4422 17.921 4.25144 17.7803 4.11078C17.6397 3.97013 17.4489 3.89111 17.25 3.89111H3.75C3.55109 3.89111 3.36032 3.97013 3.21967 4.11078C3.07902 4.25144 3 4.4422 3 4.64111C3 4.84003 3.07902 5.03079 3.21967 5.17144C3.36032 5.3121 3.55109 5.39111 3.75 5.39111V20.3911H2.25C2.05109 20.3911 1.86032 20.4701 1.71967 20.6108C1.57902 20.7514 1.5 20.9422 1.5 21.1411C1.5 21.34 1.57902 21.5308 1.71967 21.6714C1.86032 21.8121 2.05109 21.8911 2.25 21.8911H23.25C23.4489 21.8911 23.6397 21.8121 23.7803 21.6714C23.921 21.5308 24 21.34 24 21.1411C24 20.9422 23.921 20.7514 23.7803 20.6108C23.6397 20.4701 23.4489 20.3911 23.25 20.3911ZM20.25 9.89111V20.3911H17.25V9.89111H20.25ZM5.25 5.39111H15.75V20.3911H13.5V15.8911C13.5 15.6922 13.421 15.5014 13.2803 15.3608C13.1397 15.2201 12.9489 15.1411 12.75 15.1411H8.25C8.05109 15.1411 7.86032 15.2201 7.71967 15.3608C7.57902 15.5014 7.5 15.6922 7.5 15.8911V20.3911H5.25V5.39111ZM12 20.3911H9V16.6411H12V20.3911ZM6.75 8.39111C6.75 8.1922 6.82902 8.00144 6.96967 7.86078C7.11032 7.72013 7.30109 7.64111 7.5 7.64111H9C9.19891 7.64111 9.38968 7.72013 9.53033 7.86078C9.67098 8.00144 9.75 8.1922 9.75 8.39111C9.75 8.59003 9.67098 8.78079 9.53033 8.92144C9.38968 9.0621 9.19891 9.14111 9 9.14111H7.5C7.30109 9.14111 7.11032 9.0621 6.96967 8.92144C6.82902 8.78079 6.75 8.59003 6.75 8.39111ZM11.25 8.39111C11.25 8.1922 11.329 8.00144 11.4697 7.86078C11.6103 7.72013 11.8011 7.64111 12 7.64111H13.5C13.6989 7.64111 13.8897 7.72013 14.0303 7.86078C14.171 8.00144 14.25 8.1922 14.25 8.39111C14.25 8.59003 14.171 8.78079 14.0303 8.92144C13.8897 9.0621 13.6989 9.14111 13.5 9.14111H12C11.8011 9.14111 11.6103 9.0621 11.4697 8.92144C11.329 8.78079 11.25 8.59003 11.25 8.39111ZM6.75 12.1411C6.75 11.9422 6.82902 11.7514 6.96967 11.6108C7.11032 11.4701 7.30109 11.3911 7.5 11.3911H9C9.19891 11.3911 9.38968 11.4701 9.53033 11.6108C9.67098 11.7514 9.75 11.9422 9.75 12.1411C9.75 12.34 9.67098 12.5308 9.53033 12.6714C9.38968 12.8121 9.19891 12.8911 9 12.8911H7.5C7.30109 12.8911 7.11032 12.8121 6.96967 12.6714C6.82902 12.5308 6.75 12.34 6.75 12.1411ZM11.25 12.1411C11.25 11.9422 11.329 11.7514 11.4697 11.6108C11.6103 11.4701 11.8011 11.3911 12 11.3911H13.5C13.6989 11.3911 13.8897 11.4701 14.0303 11.6108C14.171 11.7514 14.25 11.9422 14.25 12.1411C14.25 12.34 14.171 12.5308 14.0303 12.6714C13.8897 12.8121 13.6989 12.8911 13.5 12.8911H12C11.8011 12.8911 11.6103 12.8121 11.4697 12.6714C11.329 12.5308 11.25 12.34 11.25 12.1411Z" fill="white"/>
</svg>
