<svg width="20" height="23" viewBox="0 0 20 23" fill="none" xmlns="http://www.w3.org/2000/svg">
<path d="M10 11.1777C9.31709 11.178 8.65707 11.4239 8.14058 11.8707C7.62408 12.3175 7.2856 12.9352 7.187 13.6109C7.08841 14.2867 7.23628 14.9753 7.60359 15.551C7.97091 16.1268 8.53313 16.5511 9.1875 16.7464V18.4902C9.1875 18.7057 9.2731 18.9124 9.42548 19.0648C9.57785 19.2171 9.78451 19.3027 10 19.3027C10.2155 19.3027 10.4222 19.2171 10.5745 19.0648C10.7269 18.9124 10.8125 18.7057 10.8125 18.4902V16.7464C11.4669 16.5511 12.0291 16.1268 12.3964 15.551C12.7637 14.9753 12.9116 14.2867 12.813 13.6109C12.7144 12.9352 12.3759 12.3175 11.8594 11.8707C11.3429 11.4239 10.6829 11.178 10 11.1777ZM10 15.2402C9.75895 15.2402 9.52332 15.1688 9.3229 15.0348C9.12248 14.9009 8.96627 14.7106 8.87402 14.4879C8.78178 14.2652 8.75764 14.0201 8.80467 13.7837C8.85169 13.5473 8.96777 13.3301 9.13821 13.1597C9.30866 12.9893 9.52582 12.8732 9.76223 12.8262C9.99865 12.7791 10.2437 12.8033 10.4664 12.8955C10.6891 12.9878 10.8794 13.144 11.0134 13.3444C11.1473 13.5448 11.2188 13.7804 11.2188 14.0215C11.2188 14.3447 11.0903 14.6547 10.8618 14.8833C10.6332 15.1118 10.3232 15.2402 10 15.2402ZM18.125 7.92773H14.875V5.49023C14.875 4.1973 14.3614 2.95733 13.4471 2.04309C12.5329 1.12885 11.2929 0.615234 10 0.615234C8.70707 0.615234 7.46709 1.12885 6.55285 2.04309C5.63861 2.95733 5.125 4.1973 5.125 5.49023V7.92773H1.875C1.44402 7.92773 1.0307 8.09894 0.725951 8.40369C0.421205 8.70843 0.25 9.12176 0.25 9.55273V20.9277C0.25 21.3587 0.421205 21.772 0.725951 22.0768C1.0307 22.3815 1.44402 22.5527 1.875 22.5527H18.125C18.556 22.5527 18.9693 22.3815 19.274 22.0768C19.5788 21.772 19.75 21.3587 19.75 20.9277V9.55273C19.75 9.12176 19.5788 8.70843 19.274 8.40369C18.9693 8.09894 18.556 7.92773 18.125 7.92773ZM6.75 5.49023C6.75 4.62828 7.09241 3.80163 7.7019 3.19214C8.3114 2.58264 9.13805 2.24023 10 2.24023C10.862 2.24023 11.6886 2.58264 12.2981 3.19214C12.9076 3.80163 13.25 4.62828 13.25 5.49023V7.92773H6.75V5.49023ZM18.125 20.9277H1.875V9.55273H18.125V20.9277Z" fill="#433888"/>
</svg>
