<svg width="40" height="41" viewBox="0 0 40 41" fill="none" xmlns="http://www.w3.org/2000/svg">
<path d="M32.5 6.34668H7.5C6.50544 6.34668 5.55161 6.74177 4.84835 7.44503C4.14509 8.14829 3.75 9.10212 3.75 10.0967V27.5967C3.75 28.5912 4.14509 29.5451 4.84835 30.2483C5.55161 30.9516 6.50544 31.3467 7.5 31.3467H18.75V33.8467H15C14.6685 33.8467 14.3505 33.9784 14.1161 34.2128C13.8817 34.4472 13.75 34.7652 13.75 35.0967C13.75 35.4282 13.8817 35.7461 14.1161 35.9806C14.3505 36.215 14.6685 36.3467 15 36.3467H25C25.3315 36.3467 25.6495 36.215 25.8839 35.9806C26.1183 35.7461 26.25 35.4282 26.25 35.0967C26.25 34.7652 26.1183 34.4472 25.8839 34.2128C25.6495 33.9784 25.3315 33.8467 25 33.8467H21.25V31.3467H32.5C33.4946 31.3467 34.4484 30.9516 35.1517 30.2483C35.8549 29.5451 36.25 28.5912 36.25 27.5967V10.0967C36.25 9.10212 35.8549 8.14829 35.1517 7.44503C34.4484 6.74177 33.4946 6.34668 32.5 6.34668ZM7.5 8.84668H32.5C32.8315 8.84668 33.1495 8.97838 33.3839 9.2128C33.6183 9.44722 33.75 9.76516 33.75 10.0967V22.5967H6.25V10.0967C6.25 9.76516 6.3817 9.44722 6.61612 9.2128C6.85054 8.97838 7.16848 8.84668 7.5 8.84668ZM32.5 28.8467H7.5C7.16848 28.8467 6.85054 28.715 6.61612 28.4806C6.3817 28.2461 6.25 27.9282 6.25 27.5967V25.0967H33.75V27.5967C33.75 27.9282 33.6183 28.2461 33.3839 28.4806C33.1495 28.715 32.8315 28.8467 32.5 28.8467Z" fill="white"/>
</svg>
