<svg width="169" height="45" viewBox="0 0 169 45" fill="none" xmlns="http://www.w3.org/2000/svg">
<path d="M15.2847 11.3091C15.2847 11.3091 15.2847 11.298 15.2847 11.2936C15.2606 6.86626 12.023 3.2868 7.64347 3.2868C3.26389 3.2868 0 6.89285 0 11.3423C0 15.7919 3.24639 19.3977 7.64347 19.3977C9.88355 19.3977 11.824 18.4612 13.189 16.9559L11.9552 15.7077C11.428 15.1739 10.612 15.1033 9.98201 15.5085C9.31915 15.9332 8.52723 16.1767 7.64127 16.1767C5.00303 16.1767 3.18295 14.0119 3.18295 11.3423C3.18295 8.67262 5.00303 6.50768 7.64127 6.50768C9.7873 6.50768 11.3908 7.93992 11.9159 9.91006H6.53435C5.77964 9.91006 5.16711 10.5299 5.16711 11.2936V12.6771H13.9197C14.6569 12.6771 15.2585 12.0839 15.2825 11.3445H15.2847C15.2847 11.3334 15.2847 11.3224 15.2847 11.3113" fill="#FFB802"/>
<path d="M37.7986 3.28687C33.4022 3.28687 30.1562 6.89291 30.1562 11.3424C30.1562 15.792 33.4022 19.3978 37.7986 19.3978C42.1951 19.3978 45.441 15.792 45.441 11.3424C45.441 6.89291 42.1951 3.28687 37.7986 3.28687ZM37.7986 16.1767C35.1608 16.1767 33.3409 14.012 33.3409 11.3424C33.3409 8.67268 35.1608 6.50774 37.7986 6.50774C40.4365 6.50774 42.2563 8.67268 42.2563 11.3424C42.2563 14.012 40.4365 16.1767 37.7986 16.1767Z" fill="#FFB802"/>
<path d="M19.7798 17.8368L15.3926 5.93028C14.9973 4.8589 15.7415 3.69995 16.8262 3.69995H18.5726L22.355 14.6091L25.5645 5.30584C25.9028 4.34905 26.7634 3.71566 27.7254 3.71566H30.1568L24.3848 19.3978H21.9301C20.9808 19.3978 20.1266 18.7801 19.7798 17.8388" fill="#FFB802"/>
<path d="M62.4095 4.67903C62.583 4.67903 62.7179 4.73687 62.8143 4.85253C62.93 4.9682 62.9878 5.10315 62.9878 5.25737V18.5303C62.9878 18.6845 62.93 18.8195 62.8143 18.9352C62.6987 19.0508 62.5637 19.1087 62.4095 19.1087C62.236 19.1087 62.0914 19.0508 61.9757 18.9352C61.8793 18.8195 61.8312 18.6845 61.8312 18.5303V14.4241L62.2938 14.0482C62.2938 14.6651 62.1396 15.2916 61.8312 15.9278C61.5227 16.5639 61.0986 17.1423 60.5588 17.6628C60.019 18.1833 59.3828 18.6074 58.6503 18.9352C57.9177 19.2436 57.1273 19.3978 56.2791 19.3978C54.9874 19.3978 53.8308 19.0605 52.809 18.3857C51.8066 17.711 51.0162 16.7953 50.4378 15.6386C49.8595 14.4819 49.5703 13.1807 49.5703 11.7348C49.5703 10.2697 49.8595 8.97804 50.4378 7.85991C51.0354 6.72251 51.8355 5.83572 52.8379 5.19954C53.8597 4.54409 55.0067 4.21636 56.2791 4.21636C57.108 4.21636 57.8888 4.37058 58.6214 4.67903C59.3539 4.9682 59.9901 5.38268 60.5299 5.92247C61.0889 6.46225 61.5227 7.09843 61.8312 7.83099C62.1396 8.54428 62.2938 9.32504 62.2938 10.1733L61.8312 9.45035V5.25737C61.8312 5.10315 61.8793 4.9682 61.9757 4.85253C62.0914 4.73687 62.236 4.67903 62.4095 4.67903ZM56.3369 18.299C57.4165 18.299 58.3804 18.0194 59.2286 17.4604C60.0768 16.882 60.7419 16.1013 61.2239 15.1181C61.7058 14.1156 61.9468 12.9879 61.9468 11.7348C61.9468 10.5396 61.7058 9.45999 61.2239 8.49609C60.7419 7.51291 60.0768 6.74178 59.2286 6.18272C58.3804 5.60438 57.4165 5.31521 56.3369 5.31521C55.2766 5.31521 54.3224 5.59474 53.4741 6.1538C52.6259 6.69359 51.9512 7.44543 51.4499 8.40934C50.968 9.37324 50.727 10.4817 50.727 11.7348C50.727 12.9879 50.968 14.1156 51.4499 15.1181C51.9319 16.1013 52.597 16.882 53.4452 17.4604C54.2934 18.0194 55.2573 18.299 56.3369 18.299Z" fill="#383842"/>
<path d="M66.9678 16.7953C66.8328 16.5639 66.7654 16.3808 66.7654 16.2459C66.7846 16.0916 66.8617 15.9663 66.9967 15.8699C67.0931 15.7736 67.2184 15.735 67.3726 15.7543C67.5461 15.7543 67.6907 15.8217 67.8064 15.9567C68.3076 16.67 68.9438 17.2483 69.7149 17.6917C70.5053 18.1351 71.4306 18.3568 72.4909 18.3568C73.1271 18.3568 73.7344 18.2508 74.3127 18.0387C74.9103 17.8267 75.3923 17.5086 75.7586 17.0845C76.1441 16.6603 76.3369 16.1398 76.3369 15.5229C76.3369 14.8675 76.1538 14.347 75.7875 13.9614C75.4212 13.5566 74.9489 13.2385 74.3705 13.0071C73.7922 12.7758 73.1849 12.583 72.5488 12.4288C71.874 12.2553 71.2282 12.0625 70.6113 11.8505C70.0137 11.6191 69.4836 11.3396 69.0209 11.0119C68.5582 10.6649 68.1919 10.26 67.922 9.79735C67.6521 9.33468 67.5172 8.78526 67.5172 8.14908C67.5172 7.39724 67.7196 6.72251 68.1245 6.12489C68.5293 5.52727 69.098 5.06459 69.8306 4.73687C70.5631 4.38986 71.4114 4.21636 72.3753 4.21636C72.8379 4.21636 73.3295 4.27419 73.85 4.38986C74.3705 4.50553 74.8911 4.70795 75.4116 4.99712C75.9321 5.26701 76.414 5.65257 76.8574 6.1538C77.0116 6.26947 77.0791 6.41406 77.0598 6.58756C77.0598 6.74178 76.9924 6.88637 76.8574 7.02132C76.7417 7.09843 76.6164 7.13698 76.4815 7.13698C76.3465 7.13698 76.2309 7.07915 76.1345 6.96348C75.6333 6.40442 75.0453 5.98994 74.3705 5.72005C73.7151 5.45015 73.0114 5.31521 72.2596 5.31521C71.6234 5.31521 71.0258 5.42124 70.4667 5.6333C69.927 5.84535 69.4836 6.16344 69.1366 6.58756C68.7895 6.9924 68.616 7.51291 68.616 8.14908C68.6546 8.7467 68.857 9.23829 69.2233 9.62385C69.6089 10.0094 70.1101 10.3275 70.727 10.5781C71.3632 10.8287 72.0765 11.0601 72.8669 11.2721C73.503 11.4263 74.091 11.6095 74.6308 11.8215C75.1899 12.0143 75.6718 12.2649 76.0767 12.5734C76.5008 12.8818 76.8285 13.2674 77.0598 13.7301C77.3104 14.1927 77.4358 14.7711 77.4358 15.4651C77.4358 16.2748 77.2141 16.9784 76.7707 17.576C76.3465 18.1544 75.7489 18.6074 74.9778 18.9352C74.226 19.2436 73.3584 19.3978 72.3753 19.3978C71.3728 19.3978 70.4089 19.1954 69.4836 18.7906C68.5582 18.3857 67.7196 17.7206 66.9678 16.7953Z" fill="#383842"/>
<path d="M80.4097 16.7953C80.2747 16.5639 80.2073 16.3808 80.2073 16.2459C80.2266 16.0916 80.3037 15.9663 80.4386 15.8699C80.535 15.7736 80.6603 15.735 80.8145 15.7543C80.988 15.7543 81.1326 15.8217 81.2483 15.9567C81.7495 16.67 82.3857 17.2483 83.1568 17.6917C83.9472 18.1351 84.8726 18.3568 85.9329 18.3568C86.569 18.3568 87.1763 18.2508 87.7546 18.0387C88.3523 17.8267 88.8342 17.5086 89.2005 17.0845C89.586 16.6603 89.7788 16.1398 89.7788 15.5229C89.7788 14.8675 89.5957 14.347 89.2294 13.9614C88.8631 13.5566 88.3908 13.2385 87.8125 13.0071C87.2341 12.7758 86.6269 12.583 85.9907 12.4288C85.316 12.2553 84.6701 12.0625 84.0532 11.8505C83.4556 11.6191 82.9255 11.3396 82.4628 11.0119C82.0001 10.6649 81.6339 10.26 81.364 9.79735C81.0941 9.33468 80.9591 8.78526 80.9591 8.14908C80.9591 7.39724 81.1615 6.72251 81.5664 6.12489C81.9712 5.52727 82.5399 5.06459 83.2725 4.73687C84.0051 4.38986 84.8533 4.21636 85.8172 4.21636C86.2799 4.21636 86.7715 4.27419 87.292 4.38986C87.8125 4.50553 88.333 4.70795 88.8535 4.99712C89.374 5.26701 89.8559 5.65257 90.2993 6.1538C90.4536 6.26947 90.521 6.41406 90.5018 6.58756C90.5018 6.74178 90.4343 6.88637 90.2993 7.02132C90.1837 7.09843 90.0584 7.13698 89.9234 7.13698C89.7885 7.13698 89.6728 7.07915 89.5764 6.96348C89.0752 6.40442 88.4872 5.98994 87.8125 5.72005C87.157 5.45015 86.4534 5.31521 85.7015 5.31521C85.0653 5.31521 84.4677 5.42124 83.9087 5.6333C83.3689 5.84535 82.9255 6.16344 82.5785 6.58756C82.2315 6.9924 82.058 7.51291 82.058 8.14908C82.0965 8.7467 82.2989 9.23829 82.6652 9.62385C83.0508 10.0094 83.552 10.3275 84.1689 10.5781C84.8051 10.8287 85.5184 11.0601 86.3088 11.2721C86.945 11.4263 87.5329 11.6095 88.0727 11.8215C88.6318 12.0143 89.1137 12.2649 89.5186 12.5734C89.9427 12.8818 90.2704 13.2674 90.5018 13.7301C90.7524 14.1927 90.8777 14.7711 90.8777 15.4651C90.8777 16.2748 90.656 16.9784 90.2126 17.576C89.7885 18.1544 89.1908 18.6074 88.4197 18.9352C87.6679 19.2436 86.8004 19.3978 85.8172 19.3978C84.8147 19.3978 83.8508 19.1954 82.9255 18.7906C82.0001 18.3857 81.1615 17.7206 80.4097 16.7953Z" fill="#383842"/>
<path d="M95.818 18.5303C95.818 18.6845 95.7601 18.8195 95.6445 18.9352C95.5288 19.0508 95.3939 19.1087 95.2396 19.1087C95.0661 19.1087 94.9215 19.0508 94.8059 18.9352C94.7095 18.8195 94.6613 18.6845 94.6613 18.5303V4.7947C94.6613 4.64048 94.7191 4.50553 94.8348 4.38986C94.9505 4.27419 95.0854 4.21636 95.2396 4.21636C95.4131 4.21636 95.5481 4.27419 95.6445 4.38986C95.7601 4.50553 95.818 4.64048 95.818 4.7947V18.5303ZM95.2396 2.25C94.9312 2.25 94.6806 2.16325 94.4878 1.98975C94.3143 1.81624 94.2275 1.59455 94.2275 1.32465V1.09332C94.2275 0.823423 94.3239 0.601725 94.5167 0.428223C94.7095 0.25472 94.9601 0.167969 95.2686 0.167969C95.5384 0.167969 95.7601 0.25472 95.9336 0.428223C96.1264 0.601725 96.2228 0.823423 96.2228 1.09332V1.32465C96.2228 1.59455 96.1264 1.81624 95.9336 1.98975C95.7601 2.16325 95.5288 2.25 95.2396 2.25Z" fill="#383842"/>
<path d="M99.8101 16.7953C99.6752 16.5639 99.6077 16.3808 99.6077 16.2459C99.627 16.0916 99.7041 15.9663 99.839 15.8699C99.9354 15.7736 100.061 15.735 100.215 15.7543C100.388 15.7543 100.533 15.8217 100.649 15.9567C101.15 16.67 101.786 17.2483 102.557 17.6917C103.348 18.1351 104.273 18.3568 105.333 18.3568C105.969 18.3568 106.577 18.2508 107.155 18.0387C107.753 17.8267 108.235 17.5086 108.601 17.0845C108.986 16.6603 109.179 16.1398 109.179 15.5229C109.179 14.8675 108.996 14.347 108.63 13.9614C108.264 13.5566 107.791 13.2385 107.213 13.0071C106.635 12.7758 106.027 12.583 105.391 12.4288C104.716 12.2553 104.071 12.0625 103.454 11.8505C102.856 11.6191 102.326 11.3396 101.863 11.0119C101.401 10.6649 101.034 10.26 100.764 9.79735C100.494 9.33468 100.36 8.78526 100.36 8.14908C100.36 7.39724 100.562 6.72251 100.967 6.12489C101.372 5.52727 101.94 5.06459 102.673 4.73687C103.405 4.38986 104.254 4.21636 105.218 4.21636C105.68 4.21636 106.172 4.27419 106.692 4.38986C107.213 4.50553 107.733 4.70795 108.254 4.99712C108.774 5.26701 109.256 5.65257 109.7 6.1538C109.854 6.26947 109.921 6.41406 109.902 6.58756C109.902 6.74178 109.835 6.88637 109.7 7.02132C109.584 7.09843 109.459 7.13698 109.324 7.13698C109.189 7.13698 109.073 7.07915 108.977 6.96348C108.476 6.40442 107.888 5.98994 107.213 5.72005C106.557 5.45015 105.854 5.31521 105.102 5.31521C104.466 5.31521 103.868 5.42124 103.309 5.6333C102.769 5.84535 102.326 6.16344 101.979 6.58756C101.632 6.9924 101.458 7.51291 101.458 8.14908C101.497 8.7467 101.699 9.23829 102.066 9.62385C102.451 10.0094 102.952 10.3275 103.569 10.5781C104.206 10.8287 104.919 11.0601 105.709 11.2721C106.345 11.4263 106.933 11.6095 107.473 11.8215C108.032 12.0143 108.514 12.2649 108.919 12.5734C109.343 12.8818 109.671 13.2674 109.902 13.7301C110.153 14.1927 110.278 14.7711 110.278 15.4651C110.278 16.2748 110.056 16.9784 109.613 17.576C109.189 18.1544 108.591 18.6074 107.82 18.9352C107.068 19.2436 106.201 19.3978 105.218 19.3978C104.215 19.3978 103.251 19.1954 102.326 18.7906C101.401 18.3857 100.562 17.7206 99.8101 16.7953Z" fill="#383842"/>
<path d="M112.732 4.56336H119.44C119.595 4.56336 119.72 4.6212 119.816 4.73687C119.932 4.85253 119.99 4.97784 119.99 5.11279C119.99 5.26701 119.932 5.40196 119.816 5.51763C119.72 5.61402 119.595 5.66221 119.44 5.66221H112.732C112.597 5.66221 112.471 5.60438 112.356 5.48871C112.24 5.37304 112.182 5.24773 112.182 5.11279C112.182 4.95856 112.24 4.83326 112.356 4.73687C112.471 4.6212 112.597 4.56336 112.732 4.56336ZM115.681 0.312554C115.855 0.312554 115.99 0.370388 116.086 0.486056C116.202 0.601725 116.259 0.736671 116.259 0.890895V15.9567C116.259 16.5929 116.337 17.0652 116.491 17.3736C116.664 17.6628 116.876 17.8556 117.127 17.952C117.378 18.0291 117.619 18.0676 117.85 18.0676C117.985 18.0676 118.1 18.0484 118.197 18.0098C118.293 17.9712 118.409 17.952 118.544 17.952C118.679 17.952 118.794 18.0098 118.891 18.1255C118.987 18.2219 119.035 18.3375 119.035 18.4725C119.035 18.646 118.92 18.8002 118.688 18.9352C118.476 19.0508 118.206 19.1087 117.879 19.1087C117.763 19.1087 117.551 19.1087 117.243 19.1087C116.953 19.0894 116.635 19.0026 116.288 18.8484C115.961 18.6749 115.681 18.3761 115.45 17.952C115.218 17.5086 115.103 16.8628 115.103 16.0145V0.890895C115.103 0.736671 115.161 0.601725 115.276 0.486056C115.392 0.370388 115.527 0.312554 115.681 0.312554Z" fill="#383842"/>
<path d="M135.154 4.67903C135.328 4.67903 135.462 4.73687 135.559 4.85253C135.675 4.9682 135.732 5.10315 135.732 5.25737V18.5303C135.732 18.6845 135.675 18.8195 135.559 18.9352C135.443 19.0508 135.308 19.1087 135.154 19.1087C134.981 19.1087 134.836 19.0508 134.72 18.9352C134.624 18.8195 134.576 18.6845 134.576 18.5303V14.4241L135.038 14.0482C135.038 14.6651 134.884 15.2916 134.576 15.9278C134.267 16.5639 133.843 17.1423 133.303 17.6628C132.764 18.1833 132.127 18.6074 131.395 18.9352C130.662 19.2436 129.872 19.3978 129.024 19.3978C127.732 19.3978 126.575 19.0605 125.554 18.3857C124.551 17.711 123.761 16.7953 123.182 15.6386C122.604 14.4819 122.315 13.1807 122.315 11.7348C122.315 10.2697 122.604 8.97804 123.182 7.85991C123.78 6.72251 124.58 5.83572 125.582 5.19954C126.604 4.54409 127.751 4.21636 129.024 4.21636C129.853 4.21636 130.633 4.37058 131.366 4.67903C132.098 4.9682 132.735 5.38268 133.274 5.92247C133.833 6.46225 134.267 7.09843 134.576 7.83099C134.884 8.54428 135.038 9.32504 135.038 10.1733L134.576 9.45035V5.25737C134.576 5.10315 134.624 4.9682 134.72 4.85253C134.836 4.73687 134.981 4.67903 135.154 4.67903ZM129.081 18.299C130.161 18.299 131.125 18.0194 131.973 17.4604C132.821 16.882 133.486 16.1013 133.968 15.1181C134.45 14.1156 134.691 12.9879 134.691 11.7348C134.691 10.5396 134.45 9.45999 133.968 8.49609C133.486 7.51291 132.821 6.74178 131.973 6.18272C131.125 5.60438 130.161 5.31521 129.081 5.31521C128.021 5.31521 127.067 5.59474 126.219 6.1538C125.37 6.69359 124.696 7.44543 124.194 8.40934C123.712 9.37324 123.472 10.4817 123.472 11.7348C123.472 12.9879 123.712 14.1156 124.194 15.1181C124.676 16.1013 125.341 16.882 126.19 17.4604C127.038 18.0194 128.002 18.299 129.081 18.299Z" fill="#383842"/>
<path d="M147.086 4.21636C148.301 4.21636 149.284 4.45733 150.036 4.93929C150.807 5.42124 151.366 6.07669 151.713 6.90565C152.079 7.7346 152.262 8.65995 152.262 9.68169V18.5303C152.262 18.6845 152.204 18.8195 152.089 18.9352C151.973 19.0508 151.838 19.1087 151.684 19.1087C151.51 19.1087 151.366 19.0508 151.25 18.9352C151.154 18.8195 151.106 18.6845 151.106 18.5303V9.79735C151.106 8.9684 150.961 8.21655 150.672 7.54182C150.402 6.86709 149.959 6.32731 149.342 5.92247C148.744 5.51763 147.954 5.31521 146.97 5.31521C146.122 5.31521 145.293 5.51763 144.484 5.92247C143.674 6.32731 142.999 6.86709 142.459 7.54182C141.939 8.21655 141.679 8.9684 141.679 9.79735V18.5303C141.679 18.6845 141.621 18.8195 141.505 18.9352C141.389 19.0508 141.255 19.1087 141.1 19.1087C140.927 19.1087 140.782 19.0508 140.667 18.9352C140.57 18.8195 140.522 18.6845 140.522 18.5303V5.25737C140.522 5.10315 140.58 4.9682 140.695 4.85253C140.811 4.73687 140.946 4.67903 141.1 4.67903C141.274 4.67903 141.409 4.73687 141.505 4.85253C141.621 4.9682 141.679 5.10315 141.679 5.25737V8.09125L140.956 9.47927C140.956 8.78526 141.139 8.12016 141.505 7.48399C141.871 6.84781 142.353 6.28875 142.951 5.8068C143.549 5.30557 144.204 4.92001 144.917 4.65012C145.65 4.36094 146.373 4.21636 147.086 4.21636Z" fill="#383842"/>
<path d="M155.74 4.56336H162.449C162.603 4.56336 162.728 4.6212 162.825 4.73687C162.94 4.85253 162.998 4.97784 162.998 5.11279C162.998 5.26701 162.94 5.40196 162.825 5.51763C162.728 5.61402 162.603 5.66221 162.449 5.66221H155.74C155.605 5.66221 155.48 5.60438 155.364 5.48871C155.248 5.37304 155.191 5.24773 155.191 5.11279C155.191 4.95856 155.248 4.83326 155.364 4.73687C155.48 4.6212 155.605 4.56336 155.74 4.56336ZM158.69 0.312554C158.863 0.312554 158.998 0.370388 159.094 0.486056C159.21 0.601725 159.268 0.736671 159.268 0.890895V15.9567C159.268 16.5929 159.345 17.0652 159.499 17.3736C159.673 17.6628 159.885 17.8556 160.135 17.952C160.386 18.0291 160.627 18.0676 160.858 18.0676C160.993 18.0676 161.109 18.0484 161.205 18.0098C161.302 17.9712 161.417 17.952 161.552 17.952C161.687 17.952 161.803 18.0098 161.899 18.1255C161.996 18.2219 162.044 18.3375 162.044 18.4725C162.044 18.646 161.928 18.8002 161.697 18.9352C161.485 19.0508 161.215 19.1087 160.887 19.1087C160.772 19.1087 160.56 19.1087 160.251 19.1087C159.962 19.0894 159.644 19.0026 159.297 18.8484C158.969 18.6749 158.69 18.3761 158.458 17.952C158.227 17.5086 158.111 16.8628 158.111 16.0145V0.890895C158.111 0.736671 158.169 0.601725 158.285 0.486056C158.4 0.370388 158.535 0.312554 158.69 0.312554Z" fill="#383842"/>
<path d="M167.984 34.9237C166.332 35.0645 164.584 35.4853 163.048 35.3039C150.582 33.8477 139.145 35.4476 127.54 36.5346C118.825 37.3504 110.573 37.4983 101.844 34.9575C98.2728 33.9192 92.5321 34.2263 88.0516 34.5118C80.8515 34.9689 73.8065 35.8346 66.8082 36.6853C60.1983 37.4857 54.5428 36.3992 50.5354 33.9122C46.1351 31.182 40.8572 30.847 35.1364 31.3147C25.0145 32.1364 15.9932 34.1583 7.5802 36.7184C4.95931 37.5158 0.406151 36.6332 0.0930357 35.1128C-0.025824 34.5247 1.14037 33.5885 2.28106 33.3757C9.52423 32.0191 16.8474 30.7181 24.3091 29.5963C30.9746 28.5959 37.9337 27.6053 45.1559 28.9869C48.7167 29.6709 52.1494 30.9183 54.9168 32.2415C58.4298 33.9241 62.0591 33.9471 66.0821 33.618C75.1804 32.868 84.212 31.9725 93.41 31.4429C96.6266 31.2564 100.636 31.591 103.559 32.3652C110.093 34.0934 116.469 34.343 123.172 33.7154C131.158 32.9638 139.095 32.0805 147.198 31.589C150.737 31.3748 154.652 31.968 158.388 32.255C160.283 32.4019 162.233 32.5688 164.008 32.9213C165.565 33.2289 166.916 33.8113 168.364 34.2733C168.244 34.4875 168.123 34.706 167.993 34.9198L167.984 34.9237Z" fill="#FFB802"/>
</svg>
