<svg width="688" height="700" viewBox="0 0 688 700" fill="none" xmlns="http://www.w3.org/2000/svg">
<path d="M164.419 -40.369C106.181 -22.2884 55.1165 8.09648 13.0627 47.0624C-38.6697 102.42 -79.047 174.796 -53.6552 254.534C-53.6552 254.534 -7.58362 414.988 212.234 344.989C432.052 274.99 373.01 162.898 256.232 200.085C155.316 232.221 152.939 321.383 152.939 321.383C152.939 321.383 95.8412 341.251 34.6035 306.349C34.6035 306.349 42.4582 147.437 230.451 87.5726C418.445 27.7075 461.23 181.246 461.23 181.246C461.23 181.246 547.26 365.359 210.247 464.599C210.247 464.599 317.587 552.127 423.211 434.562C441.973 413.708 472.074 407.842 497.007 421.06L552.946 450.617C552.946 450.617 516.463 559.242 384.032 601.414C251.603 643.585 99.958 570.921 69.4236 475.034C69.4236 475.034 -47.5244 467.579 -115.151 374.611C-112.407 412.448 -104.479 450.609 -90.7223 488.251C-18.143 686.413 193.844 797.985 393.757 743.101C613.86 682.601 736.792 449.44 668.176 230.022C601.308 16.092 374.617 -105.619 164.419 -40.369Z" fill="#FAE1C5"/>
</svg>
