<svg width="28" height="29" viewBox="0 0 28 29" fill="none" xmlns="http://www.w3.org/2000/svg">
<path d="M25.3749 14.3913C25.3714 17.1714 24.3514 19.8542 22.507 21.9345C20.6627 24.0147 18.1213 25.3488 15.3617 25.6853C15.3002 25.6923 15.238 25.6861 15.1791 25.6673C15.1202 25.6484 15.066 25.6173 15.02 25.576C14.974 25.5346 14.9373 25.484 14.9123 25.4275C14.8873 25.3709 14.8746 25.3097 14.8749 25.2478V17.0163H17.4999C17.6199 17.0165 17.7386 16.9921 17.8487 16.9446C17.9589 16.897 18.058 16.8273 18.1401 16.7398C18.2222 16.6524 18.2853 16.5489 18.3257 16.436C18.3662 16.323 18.3829 16.203 18.3749 16.0833C18.3556 15.8583 18.2518 15.649 18.0844 15.4974C17.917 15.3458 17.6984 15.2632 17.4726 15.2663H14.8749V12.6413C14.8749 12.1771 15.0593 11.732 15.3875 11.4038C15.7157 11.0756 16.1608 10.8913 16.6249 10.8913H18.3749C18.4949 10.8915 18.6136 10.8671 18.7237 10.8196C18.8339 10.772 18.933 10.7023 19.0151 10.6148C19.0972 10.5274 19.1603 10.4239 19.2007 10.311C19.2412 10.198 19.2579 10.078 19.2499 9.9583C19.2306 9.73291 19.1265 9.52326 18.9586 9.37162C18.7907 9.21999 18.5716 9.13767 18.3454 9.14127H16.6249C15.6967 9.14127 14.8065 9.51002 14.1501 10.1664C13.4937 10.8228 13.1249 11.713 13.1249 12.6413V15.2663H10.4999C10.38 15.266 10.2613 15.2904 10.1512 15.338C10.041 15.3855 9.94186 15.4552 9.8598 15.5427C9.77774 15.6302 9.71455 15.7336 9.67415 15.8466C9.63375 15.9595 9.617 16.0795 9.62495 16.1992C9.6443 16.4246 9.74842 16.6343 9.91629 16.7859C10.0842 16.9375 10.3033 17.0199 10.5295 17.0163H13.1249V25.25C13.1253 25.3118 13.1126 25.3729 13.0877 25.4294C13.0628 25.4858 13.0262 25.5364 12.9803 25.5777C12.9344 25.619 12.8803 25.6502 12.8216 25.6691C12.7628 25.688 12.7007 25.6943 12.6393 25.6875C9.80581 25.3424 7.2051 23.9462 5.35197 21.775C3.49884 19.6039 2.52835 16.8162 2.63261 13.9636C2.85136 8.05736 7.63542 3.2558 13.546 3.02611C15.0763 2.96684 16.6028 3.21681 18.0342 3.76107C19.4656 4.30534 20.7726 5.13272 21.8769 6.19372C22.9812 7.25472 23.8601 8.52755 24.4612 9.93607C25.0622 11.3446 25.373 12.8599 25.3749 14.3913Z" fill="white"/>
</svg>
