<svg width="28" height="29" viewBox="0 0 28 29" fill="none" xmlns="http://www.w3.org/2000/svg">
<path d="M17.5 14.3911C17.5 15.0833 17.2947 15.76 16.9101 16.3356C16.5256 16.9112 15.9789 17.3598 15.3394 17.6247C14.6999 17.8896 13.9961 17.9589 13.3172 17.8239C12.6383 17.6888 12.0146 17.3555 11.5251 16.866C11.0356 16.3765 10.7023 15.7529 10.5673 15.0739C10.4322 14.395 10.5015 13.6913 10.7664 13.0517C11.0313 12.4122 11.4799 11.8656 12.0555 11.481C12.6311 11.0964 13.3078 10.8911 14 10.8911C14.9283 10.8911 15.8185 11.2599 16.4749 11.9162C17.1313 12.5726 17.5 13.4629 17.5 14.3911ZM25.375 9.14111V19.6411C25.3733 21.265 24.7274 22.8219 23.5791 23.9702C22.4308 25.1185 20.8739 25.7644 19.25 25.7661H8.75C7.12608 25.7644 5.56917 25.1185 4.42089 23.9702C3.27261 22.8219 2.62674 21.265 2.625 19.6411V9.14111C2.62674 7.5172 3.27261 5.96029 4.42089 4.812C5.56917 3.66372 7.12608 3.01785 8.75 3.01611H19.25C20.8739 3.01785 22.4308 3.66372 23.5791 4.812C24.7274 5.96029 25.3733 7.5172 25.375 9.14111ZM19.25 14.3911C19.25 13.3528 18.9421 12.3377 18.3652 11.4744C17.7883 10.611 16.9684 9.93811 16.0091 9.54075C15.0498 9.14339 13.9942 9.03942 12.9758 9.24199C11.9574 9.44456 11.0219 9.94458 10.2877 10.6788C9.55346 11.413 9.05345 12.3485 8.85088 13.3669C8.64831 14.3853 8.75227 15.4409 9.14963 16.4002C9.54699 17.3595 10.2199 18.1795 11.0833 18.7563C11.9466 19.3332 12.9616 19.6411 14 19.6411C15.3919 19.6397 16.7265 19.0861 17.7107 18.1018C18.695 17.1176 19.2486 15.7831 19.25 14.3911ZM21.875 7.82861C21.875 7.56903 21.798 7.31527 21.6538 7.09943C21.5096 6.88359 21.3046 6.71536 21.0648 6.61602C20.8249 6.51668 20.561 6.49069 20.3064 6.54133C20.0518 6.59198 19.818 6.71698 19.6344 6.90054C19.4509 7.08409 19.3259 7.31796 19.2752 7.57256C19.2246 7.82716 19.2506 8.09106 19.3499 8.33089C19.4492 8.57071 19.6175 8.7757 19.8333 8.91992C20.0492 9.06414 20.3029 9.14111 20.5625 9.14111C20.9106 9.14111 21.2444 9.00283 21.4906 8.75669C21.7367 8.51055 21.875 8.17671 21.875 7.82861Z" fill="white"/>
</svg>
