<svg width="15" height="15" viewBox="0 0 15 15" fill="none" xmlns="http://www.w3.org/2000/svg">
<path d="M7.13828 4.32812C9.10703 4.32812 10.732 5.95312 10.732 7.92188C10.732 9.92188 9.10703 11.5156 7.13828 11.5156C5.13828 11.5156 3.54453 9.92188 3.54453 7.92188C3.54453 5.95312 5.13828 4.32812 7.13828 4.32812ZM7.13828 10.2656C8.41953 10.2656 9.45078 9.23438 9.45078 7.92188C9.45078 6.64062 8.41953 5.60938 7.13828 5.60938C5.82578 5.60938 4.79453 6.64062 4.79453 7.92188C4.79453 9.23438 5.85703 10.2656 7.13828 10.2656ZM11.7008 4.20312C11.7008 4.67188 11.3258 5.04688 10.857 5.04688C10.3883 5.04688 10.0133 4.67188 10.0133 4.20312C10.0133 3.73438 10.3883 3.35938 10.857 3.35938C11.3258 3.35938 11.7008 3.73438 11.7008 4.20312ZM14.0758 5.04688C14.1383 6.20312 14.1383 9.67188 14.0758 10.8281C14.0133 11.9531 13.7633 12.9219 12.9508 13.7656C12.1383 14.5781 11.1383 14.8281 10.0133 14.8906C8.85703 14.9531 5.38828 14.9531 4.23203 14.8906C3.10703 14.8281 2.13828 14.5781 1.29453 13.7656C0.482031 12.9219 0.232031 11.9531 0.169531 10.8281C0.107031 9.67188 0.107031 6.20312 0.169531 5.04688C0.232031 3.92188 0.482031 2.92188 1.29453 2.10938C2.13828 1.29688 3.10703 1.04688 4.23203 0.984375C5.38828 0.921875 8.85703 0.921875 10.0133 0.984375C11.1383 1.04688 12.1383 1.29688 12.9508 2.10938C13.7633 2.92188 14.0133 3.92188 14.0758 5.04688ZM12.5758 12.0469C12.9508 11.1406 12.857 8.95312 12.857 7.92188C12.857 6.92188 12.9508 4.73438 12.5758 3.79688C12.3258 3.20312 11.857 2.70312 11.2633 2.48438C10.3258 2.10938 8.13828 2.20312 7.13828 2.20312C6.10703 2.20312 3.91953 2.10938 3.01328 2.48438C2.38828 2.73438 1.91953 3.20312 1.66953 3.79688C1.29453 4.73438 1.38828 6.92188 1.38828 7.92188C1.38828 8.95312 1.29453 11.1406 1.66953 12.0469C1.91953 12.6719 2.38828 13.1406 3.01328 13.3906C3.91953 13.7656 6.10703 13.6719 7.13828 13.6719C8.13828 13.6719 10.3258 13.7656 11.2633 13.3906C11.857 13.1406 12.357 12.6719 12.5758 12.0469Z" fill="#3390A4"/>
</svg>
