<svg width="15" height="15" viewBox="0 0 15 15" fill="none" xmlns="http://www.w3.org/2000/svg">
<path d="M3.26328 14.9219H0.357031V5.57812H3.26328V14.9219ZM1.79453 4.32812C0.888281 4.32812 0.138281 3.54688 0.138281 2.60938C0.138281 1.70312 0.888281 0.953125 1.79453 0.953125C2.73203 0.953125 3.48203 1.70312 3.48203 2.60938C3.48203 3.54688 2.73203 4.32812 1.79453 4.32812ZM14.107 14.9219H11.232V10.3906C11.232 9.29688 11.2008 7.92188 9.70078 7.92188C8.20078 7.92188 7.98203 9.07812 7.98203 10.2969V14.9219H5.07578V5.57812H7.85703V6.85938H7.88828C8.29453 6.14062 9.23203 5.35938 10.6383 5.35938C13.5758 5.35938 14.1383 7.29688 14.1383 9.79688V14.9219H14.107Z" fill="#3390A4"/>
</svg>
