<svg width="63" height="43" viewBox="0 0 63 43" fill="none" xmlns="http://www.w3.org/2000/svg">
<path d="M20.5871 7.87108L13.6125 14.8457L9.67693 10.9101L20.5871 0L62.7753 42.1883H54.9043L20.5871 7.87108Z" fill="#FEFEFE"/>
<path d="M0 42.1708C4.73914e-07 37.2967 2.33574 30.3273 6.16892 26.8808C10.0021 23.4343 15.201 21.498 20.622 21.498C26.0429 21.498 31.2419 23.4343 35.0751 26.8808C38.9082 30.3273 41.0617 37.2967 41.0617 42.1708L34.893 42.1708C34.8929 38.7678 33.3894 33.2091 30.7131 30.8027C28.0368 28.3964 24.4069 27.0445 20.622 27.0445C16.8371 27.0445 13.2072 28.3964 10.5309 30.8027C7.85457 33.2091 6.16876 38.7678 6.16876 42.1708H0Z" fill="white"/>
</svg>
