<svg width="24" height="25" viewBox="0 0 24 25" fill="none" xmlns="http://www.w3.org/2000/svg">
<path d="M12 13.6411C13.6569 13.6411 15 12.298 15 10.6411C15 8.98426 13.6569 7.64111 12 7.64111C10.3431 7.64111 9 8.98426 9 10.6411C9 12.298 10.3431 13.6411 12 13.6411Z" stroke="white" stroke-width="1.5" stroke-linecap="round" stroke-linejoin="round"/>
<path d="M19.5 10.6411C19.5 17.3911 12 22.6411 12 22.6411C12 22.6411 4.5 17.3911 4.5 10.6411C4.5 8.65199 5.29018 6.74434 6.6967 5.33781C8.10322 3.93129 10.0109 3.14111 12 3.14111C13.9891 3.14111 15.8968 3.93129 17.3033 5.33781C18.7098 6.74434 19.5 8.65199 19.5 10.6411Z" stroke="white" stroke-width="1.5" stroke-linecap="round" stroke-linejoin="round"/>
</svg>
