<svg width="23" height="27" viewBox="0 0 23 27" fill="none" xmlns="http://www.w3.org/2000/svg">
<path d="M14.8751 4.30274C14.8751 3.6105 14.6698 2.93381 14.2852 2.35824C13.9006 1.78267 13.354 1.33406 12.7145 1.06916C12.0749 0.804251 11.3712 0.734939 10.6923 0.869987C10.0133 1.00504 9.38968 1.33838 8.90019 1.82786C8.41071 2.31735 8.07737 2.94099 7.94232 3.61992C7.80727 4.29885 7.87658 5.00259 8.14149 5.64213C8.4064 6.28167 8.855 6.82829 9.43057 7.21288C10.0061 7.59746 10.6828 7.80274 11.3751 7.80274C12.3033 7.80274 13.1936 7.43399 13.8499 6.77761C14.5063 6.12123 14.8751 5.23099 14.8751 4.30274ZM11.3751 6.05274C11.029 6.05274 10.6906 5.9501 10.4028 5.75781C10.115 5.56552 9.89073 5.2922 9.75828 4.97243C9.62583 4.65266 9.59117 4.30079 9.65869 3.96133C9.72622 3.62186 9.89289 3.31004 10.1376 3.0653C10.3824 2.82056 10.6942 2.65389 11.0337 2.58636C11.3731 2.51884 11.725 2.55349 12.0448 2.68595C12.3645 2.8184 12.6378 3.0427 12.8301 3.33049C13.0224 3.61827 13.1251 3.95662 13.1251 4.30274C13.1251 4.76687 12.9407 5.21198 12.6125 5.54017C12.2843 5.86836 11.8392 6.05274 11.3751 6.05274ZM22.6954 9.52102C22.5958 9.03097 22.3282 8.5911 21.9387 8.27738C21.5493 7.96365 21.0626 7.79577 20.5626 7.80274H2.18757C1.68891 7.80272 1.20521 7.97308 0.816619 8.28559C0.428028 8.59809 0.157872 9.03398 0.0509143 9.52104C-0.0560436 10.0081 0.006617 10.5171 0.228513 10.9636C0.45041 11.4102 0.818222 11.7676 1.27101 11.9765H1.28522L6.83601 14.421L4.53913 23.1404C4.2988 23.6698 4.27861 24.273 4.48301 24.8173C4.68741 25.3615 5.09966 25.8023 5.62905 26.0427C6.15845 26.283 6.76163 26.3032 7.30592 26.0988C7.8502 25.8944 8.29099 25.4821 8.53132 24.9527L11.3751 20.0451L14.2188 24.9527C14.4715 25.4596 14.911 25.8486 15.4447 26.0381C15.9784 26.2276 16.5648 26.2026 17.0805 25.9686C17.5962 25.7345 18.0011 25.3096 18.2099 24.7831C18.4187 24.2567 18.4152 23.6698 18.2001 23.1459L15.9032 14.4265L21.454 11.982H21.4682C21.9283 11.78 22.303 11.4232 22.5272 10.9736C22.7514 10.524 22.8109 10.01 22.6954 9.52102ZM20.7485 10.3851L14.5218 13.126C14.3312 13.21 14.1768 13.3593 14.0863 13.5469C13.9959 13.7346 13.9754 13.9483 14.0285 14.1498L16.5299 23.6621C16.5427 23.713 16.5606 23.7625 16.5835 23.8098C16.6202 23.8883 16.6328 23.9759 16.6196 24.0615C16.6065 24.1472 16.5682 24.227 16.5096 24.2908C16.451 24.3547 16.3748 24.3997 16.2906 24.4202C16.2064 24.4407 16.118 24.4357 16.0366 24.4059C15.9279 24.366 15.8394 24.2845 15.7905 24.1795C15.7795 24.1558 15.767 24.1328 15.7534 24.1105L12.1319 17.8652C12.055 17.7326 11.9446 17.6226 11.8118 17.5461C11.679 17.4696 11.5284 17.4293 11.3751 17.4293C11.2218 17.4293 11.0712 17.4696 10.9383 17.5461C10.8055 17.6226 10.6951 17.7326 10.6182 17.8652L7.00007 24.1051C6.98638 24.1273 6.97396 24.1503 6.96288 24.174C6.91407 24.2791 6.82556 24.3605 6.71679 24.4004C6.63543 24.4302 6.54704 24.4352 6.46284 24.4147C6.37865 24.3943 6.30242 24.3492 6.24384 24.2854C6.18526 24.2215 6.14696 24.1417 6.1338 24.0561C6.12064 23.9704 6.13321 23.8828 6.16991 23.8043C6.19279 23.757 6.21075 23.7076 6.22351 23.6566L8.72163 14.1465C8.77473 13.9451 8.75422 13.7313 8.6638 13.5436C8.57338 13.356 8.41897 13.2067 8.22835 13.1227L2.00163 10.3851C1.91225 10.3424 1.83998 10.2707 1.79665 10.1817C1.75332 10.0926 1.74148 9.9915 1.76307 9.89485C1.78466 9.79819 1.8384 9.71173 1.91551 9.64958C1.99262 9.58744 2.08854 9.5533 2.18757 9.55274H20.5626C20.6619 9.55256 20.7583 9.58617 20.836 9.64805C20.9137 9.70994 20.968 9.79641 20.99 9.89325C21.012 9.99009 21.0004 10.0915 20.9571 10.1809C20.9138 10.2703 20.8414 10.3423 20.7518 10.3851H20.7485Z" fill="#3390A4"/>
</svg>
