<svg width="24" height="25" viewBox="0 0 24 25" fill="none" xmlns="http://www.w3.org/2000/svg">
<path d="M15.4116 14.5168C15.5154 14.4477 15.6349 14.4056 15.7591 14.3943C15.8834 14.383 16.0085 14.4029 16.1231 14.4522L20.5444 16.4331C20.6934 16.4968 20.8177 16.607 20.8989 16.7473C20.98 16.8875 21.0135 17.0503 20.9944 17.2112C20.8487 18.2997 20.3127 19.2982 19.486 20.0211C18.6593 20.744 17.5982 21.1421 16.5 21.1412C13.1185 21.1412 9.87548 19.7979 7.48439 17.4068C5.0933 15.0157 3.75 11.7727 3.75 8.39121C3.74916 7.29303 4.1472 6.23192 4.87009 5.40521C5.59298 4.57851 6.59152 4.04249 7.68 3.89684C7.84091 3.87772 8.00368 3.91123 8.14395 3.99235C8.28422 4.07347 8.39444 4.19784 8.45813 4.34684L10.4391 8.77184C10.4877 8.88549 10.5076 9.00941 10.4968 9.13258C10.486 9.25574 10.4449 9.37432 10.3772 9.47778L8.37375 11.86C8.30269 11.9672 8.26066 12.091 8.25179 12.2194C8.24291 12.3477 8.26749 12.4762 8.32313 12.5922C9.09844 14.1793 10.7391 15.8003 12.3309 16.5681C12.4475 16.6235 12.5766 16.6475 12.7053 16.6378C12.834 16.6281 12.958 16.585 13.065 16.5128L15.4116 14.5168Z" stroke="white" stroke-width="1.5" stroke-linecap="round" stroke-linejoin="round"/>
</svg>
