<svg width="94" height="71" viewBox="0 0 94 71" fill="none" xmlns="http://www.w3.org/2000/svg">
<path d="M73.2628 63.2142C59.9975 64 67.5006 61.38 67.5006 60.5665C67.5006 59.7529 72.455 60.2559 73.2628 60.2559C74.8784 60.2559 76.4059 59.6198 77.5368 58.4661C79.2406 56.7502 81.4878 55.8184 83.8965 55.8184H89.5953C90.4031 55.8184 91.064 56.484 91.064 57.2975C91.064 58.1111 90.4031 58.7767 89.5953 58.7767H83.8965C82.2809 58.7767 80.7534 59.4127 79.6225 60.5665C77.9187 62.2823 75.6673 63.0718 73.2628 63.2142Z" fill="#2EB370"/>
<path d="M20.7388 63.2142C18.33 63.2142 16.0828 62.2675 14.3791 60.5665C13.2334 59.4127 11.7206 58.7767 10.105 58.7767H4.40625C3.59844 58.7767 2.9375 58.1111 2.9375 57.2975C2.9375 56.484 3.59844 55.8184 4.40625 55.8184H10.105C12.5138 55.8184 14.7609 56.765 16.4647 58.4661C17.6103 59.6198 19.1285 60.3873 20.7388 60.2559C30 59.5 28 61.6865 28 62.5C28 63.3135 21.5466 63.2142 20.7388 63.2142Z" fill="#2EB370"/>
<path d="M47 17.3613C46.1922 17.3613 45.5312 16.6957 45.5312 15.8822V5.52799C45.5312 4.71445 46.1922 4.04883 47 4.04883C47.8078 4.04883 48.4688 4.71445 48.4688 5.52799V15.8822C48.4688 16.6957 47.8078 17.3613 47 17.3613Z" fill="#FFCA4C"/>
<path d="M57.2782 20.3198C57.0285 20.3198 56.7641 20.2458 56.5291 20.1127C55.8388 19.6985 55.6038 18.7815 56.0297 18.0862L60.436 10.6904C60.8472 9.9952 61.7579 9.75854 62.4482 10.1875C63.1385 10.6017 63.3735 11.5187 62.9475 12.214L58.5413 19.6098C58.2622 20.0683 57.7775 20.3346 57.2782 20.3346V20.3198Z" fill="#FFCA4C"/>
<path d="M36.7199 20.3202C36.2206 20.3202 35.7359 20.0687 35.4568 19.5954L31.0505 12.1996C30.6393 11.5044 30.8596 10.5873 31.5499 10.1731C32.2402 9.75894 33.1509 9.98082 33.5621 10.676L37.9684 18.0719C38.3796 18.7671 38.1593 19.6842 37.469 20.0983C37.234 20.2462 36.9696 20.3054 36.7199 20.3054V20.3202Z" fill="#FFCA4C"/>
<path d="M68.9431 54.3405C69.8978 53.3938 70.5 52.0922 70.5 50.6426C70.5 47.7878 68.1941 45.4655 65.3594 45.4655H53.6094C53.1394 45.4655 52.6694 45.3028 52.2875 45.0217C51.7294 44.5928 51.4063 43.942 51.4063 43.2467C51.4063 42.6551 51.6412 42.093 52.0525 41.664C52.1112 41.6049 52.17 41.5457 52.2875 41.4717C52.6547 41.1907 53.1247 41.028 53.6094 41.028H57.2813C58.0891 41.028 58.75 40.3624 58.75 39.5488C58.75 38.7353 58.0891 38.0697 57.2813 38.0697H55.0781C53.8591 38.0697 52.875 37.0786 52.875 35.8509C52.875 35.2592 53.11 34.6972 53.5212 34.283C53.9325 33.8688 54.4906 33.6322 55.0781 33.6322H57.2813C58.0891 33.6322 58.75 32.9665 58.75 32.153C58.75 31.3395 58.0891 30.6738 57.2813 30.6738H55.0781C53.7122 30.6738 52.3903 31.2211 51.4356 32.1826C50.4663 33.1588 49.9375 34.4605 49.9375 35.8509C49.9375 36.9751 50.3047 38.0105 50.9069 38.8536C50.7894 38.9276 50.6719 38.9867 50.5544 39.0755C50.3341 39.2382 50.1284 39.4157 49.9669 39.5784C48.9975 40.5547 48.4688 41.8563 48.4688 43.2467C48.4688 44.8886 49.2178 46.3974 50.525 47.3884C50.6425 47.4772 50.7894 47.5511 50.9216 47.6399C50.3194 48.483 49.9522 49.5184 49.9522 50.6426C49.9522 52.9501 51.465 54.8878 53.5506 55.5534C53.1394 56.293 52.8897 57.1361 52.8897 58.0384C52.8897 60.8932 55.1956 63.2155 58.0303 63.2155H65.3741C68.2087 63.2155 70.5147 60.8932 70.5147 58.0384C70.5147 56.5888 69.9125 55.2872 68.9578 54.3405H68.9431ZM52.875 50.6426C52.875 49.4149 53.8591 48.4238 55.0781 48.4238H65.3594C66.5784 48.4238 67.5625 49.4149 67.5625 50.6426C67.5625 51.8703 66.5784 52.8613 65.3594 52.8613H55.0781C53.8591 52.8613 52.875 51.8703 52.875 50.6426ZM65.3594 60.2572H58.0156C56.7966 60.2572 55.8125 59.2661 55.8125 58.0384C55.8125 56.8107 56.7966 55.8197 58.0156 55.8197H65.3594C66.5784 55.8197 67.5625 56.8107 67.5625 58.0384C67.5625 59.2661 66.5784 60.2572 65.3594 60.2572Z" fill="#3A60AB"/>
<path d="M89.5932 33.6322H84.335C81.7354 33.6322 79.1944 32.863 77.006 31.4134L74.1125 29.4461C73.3341 28.9284 72.4529 28.4994 71.5129 28.1888C70.7344 27.9374 70.3232 27.109 70.5729 26.3251C70.8225 25.5559 71.6451 25.1269 72.4235 25.3784C73.6279 25.763 74.7441 26.3103 75.7576 26.9907L78.6363 28.9432C80.3401 30.0674 82.3082 30.6738 84.335 30.6738H89.5932C90.401 30.6738 91.0619 31.3394 91.0619 32.153C91.0619 32.9665 90.401 33.6322 89.5932 33.6322Z" fill="#2EB370"/>
<path d="M74.9062 43.9851C71.0287 43.9851 67.3569 42.0326 65.1684 38.8376C63.8025 41.8995 60.7475 43.9851 57.2812 43.9851C56.4734 43.9851 55.8125 43.3195 55.8125 42.5059V32.1518C55.8125 28.0693 58.8087 24.5 62.8625 24.5L71 25L73.5 25.5L75 26.5H73.5C74 27.5 74 27.1865 74 28C74 28.8135 73.3078 28.5001 72.5 28.5001L68 27.7143H63.1562C60.7328 27.7143 58.75 29.7111 58.75 32.1518V40.8345C60.8062 40.2872 62.4366 38.6009 62.8625 36.4266L63.1856 34.8143C63.3031 34.2226 63.7731 33.7493 64.3753 33.6457C64.9775 33.5422 65.565 33.8232 65.8881 34.3409L67.2687 36.6632C68.8697 39.3553 71.7925 41.012 74.9062 41.012C75.7141 41.012 76.375 41.6776 76.375 42.4911C76.375 43.3047 75.7141 43.9703 74.9062 43.9703V43.9851Z" fill="#2EB370"/>
<path d="M43.475 39.1051C43.3575 39.0163 43.2106 38.9424 43.0784 38.8536C43.6806 38.0105 44.0478 36.9751 44.0478 35.8509C44.0478 34.4605 43.5191 33.1588 42.5497 32.1826C41.595 31.2211 40.2731 30.6738 38.9072 30.6738H36.7041C35.8962 30.6738 35.2353 31.3395 35.2353 32.153C35.2353 32.9665 35.8962 33.6322 36.7041 33.6322H38.9072C39.4947 33.6322 40.0675 33.8688 40.4641 34.283C40.8753 34.6972 41.1103 35.274 41.1103 35.8509C41.1103 37.0786 40.1262 38.0697 38.9072 38.0697H36.7041C35.8962 38.0697 35.2353 38.7353 35.2353 39.5488C35.2353 40.3624 35.8962 41.028 36.7041 41.028H40.3759C40.8459 41.028 41.3159 41.1907 41.7419 41.5013C41.8153 41.5457 41.8741 41.6049 41.9475 41.6788C42.3587 42.093 42.5938 42.6699 42.5938 43.2467C42.5938 43.9567 42.2706 44.5928 41.7125 45.0217C41.3453 45.3028 40.8753 45.4655 40.3906 45.4655H28.6406C25.8059 45.4655 23.5 47.7878 23.5 50.6426C23.5 52.0922 24.1022 53.3938 25.0569 54.3405C24.1022 55.2872 23.5 56.5888 23.5 58.0384C23.5 60.8932 25.8059 63.2155 28.6406 63.2155H35.9844C38.8191 63.2155 41.125 60.8932 41.125 58.0384C41.125 57.1361 40.8753 56.293 40.4641 55.5534C42.535 54.8878 44.0625 52.9501 44.0625 50.6426C44.0625 49.5184 43.6953 48.483 43.0931 47.6399C43.2253 47.5511 43.3575 47.492 43.475 47.3884C44.7822 46.3974 45.5312 44.8886 45.5312 43.2467C45.5312 41.8563 45.0025 40.5547 44.0331 39.5932C43.8569 39.4157 43.6513 39.2382 43.475 39.1051ZM35.9844 60.2572H28.6406C27.4216 60.2572 26.4375 59.2661 26.4375 58.0384C26.4375 56.8107 27.4216 55.8197 28.6406 55.8197H35.9844C37.2034 55.8197 38.1875 56.8107 38.1875 58.0384C38.1875 59.2661 37.2034 60.2572 35.9844 60.2572ZM38.9219 52.8613H28.6406C27.4216 52.8613 26.4375 51.8703 26.4375 50.6426C26.4375 49.4149 27.4216 48.4238 28.6406 48.4238H38.9219C40.1409 48.4238 41.125 49.4149 41.125 50.6426C41.125 51.8703 40.1409 52.8613 38.9219 52.8613Z" fill="#3A60AB"/>
<path d="M9.66437 33.6318H4.40625C3.59844 33.6318 2.9375 32.9662 2.9375 32.1527C2.9375 31.3391 3.59844 30.6735 4.40625 30.6735H9.66437C11.6912 30.6735 13.6594 30.067 15.3778 28.9429L18.2419 27.0052C19.7841 25.9845 19.5 26 23.2503 24.9787C38 24 29.3531 25.7025 29.5 26.5012C29.6322 27.3 31.7931 27.3526 31 27.5005C29.6194 27.752 21.0766 28.6618 19.8869 29.4606L17.0081 31.4131C14.805 32.8774 12.2641 33.6466 9.66437 33.6466V33.6318Z" fill="#2EB370"/>
<path d="M36.7188 43.9859C33.2672 43.9859 30.1975 41.915 28.8316 38.8384C26.6284 42.0334 22.9713 43.9859 19.0938 43.9859C18.2859 43.9859 17.625 43.3202 17.625 42.5067C17.625 41.6932 18.2859 41.0275 19.0938 41.0275C22.2075 41.0275 25.1303 39.3561 26.7313 36.6788L28.1119 34.3565C28.4203 33.8388 29.0225 33.5577 29.6247 33.6613C30.2269 33.7648 30.6969 34.2234 30.8144 34.8298L31.1375 36.4273C31.5634 38.6017 33.1938 40.2879 35.25 40.85V32.1673C35.25 29.7267 33.2672 27.7298 30.8438 27.7298H29.375C28.5672 27.7298 27.9062 27.0642 27.9062 26.2507C27.9062 25.4371 28.5672 24.7715 29.375 24.7715H30.8438C34.8975 24.7715 38.1875 28.0848 38.1875 32.1673V42.5215C38.1875 43.335 37.5266 44.0006 36.7188 44.0006V43.9859Z" fill="#2EB370"/>
</svg>
