<svg width="40" height="41" viewBox="0 0 40 41" fill="none" xmlns="http://www.w3.org/2000/svg">
<path d="M34.9765 7.63986C34.9394 7.03037 34.6806 6.45551 34.2489 6.02374C33.8171 5.59197 33.2422 5.33315 32.6327 5.29611C30.6671 5.17892 25.6437 5.35861 21.4749 9.5258L20.7327 10.2774H11.6187C11.2891 10.2755 10.9625 10.3392 10.6577 10.4647C10.353 10.5903 10.0763 10.7751 9.84367 11.0086L4.4843 16.3711C4.15562 16.6996 3.92499 17.1131 3.81828 17.5654C3.71157 18.0176 3.73301 18.4906 3.88019 18.9314C4.02738 19.3721 4.29447 19.7631 4.65151 20.0605C5.00855 20.3578 5.4414 20.5498 5.90149 20.6149L11.9124 21.4539L18.8202 28.3617L19.6593 34.3758C19.7238 34.8359 19.9158 35.2688 20.2134 35.6255C20.5111 35.9823 20.9026 36.2486 21.3437 36.3945C21.6006 36.4804 21.8697 36.5242 22.1405 36.5242C22.4685 36.5249 22.7934 36.4606 23.0964 36.3351C23.3995 36.2095 23.6747 36.0253 23.9062 35.793L29.2687 30.4336C29.5021 30.201 29.687 29.9243 29.8126 29.6195C29.9381 29.3148 30.0018 28.9882 29.9999 28.6586V19.5445L30.7452 18.7992C34.914 14.6305 35.0937 9.60705 34.9765 7.63986ZM11.6187 12.7774H18.2327L12.0562 18.9524L6.24992 18.143L11.6187 12.7774ZM23.2452 11.3008C24.4464 10.0923 25.8916 9.15393 27.4843 8.54848C29.077 7.94303 30.7805 7.6844 32.4812 7.78986C32.5907 9.49139 32.3348 11.1967 31.7305 12.7911C31.1263 14.3855 30.1878 15.832 28.9781 17.0336L19.9999 26.0086L14.2687 20.2774L23.2452 11.3008ZM27.4999 28.6586L22.1359 34.0274L21.3249 28.2195L27.4999 22.0445V28.6586ZM15.9124 30.143C15.2093 31.6836 12.8577 35.2774 6.24992 35.2774C5.9184 35.2774 5.60046 35.1457 5.36604 34.9112C5.13162 34.6768 4.99992 34.3589 4.99992 34.0274C4.99992 27.4195 8.59367 25.068 10.1343 24.3633C10.2837 24.2952 10.445 24.2571 10.6091 24.2514C10.7732 24.2456 10.9368 24.2722 11.0906 24.3297C11.2444 24.3871 11.3853 24.4743 11.5054 24.5862C11.6255 24.6982 11.7224 24.8327 11.7905 24.982C11.8587 25.1314 11.8967 25.2928 11.9025 25.4568C11.9083 25.6209 11.8817 25.7845 11.8242 25.9383C11.7667 26.0921 11.6796 26.2331 11.5676 26.3532C11.4557 26.4733 11.3212 26.5702 11.1718 26.6383C10.1671 27.0961 7.94992 28.5695 7.5593 32.718C11.7077 32.3274 13.1843 30.1102 13.639 29.1055C13.7071 28.9561 13.804 28.8216 13.9241 28.7097C14.0442 28.5977 14.1852 28.5105 14.339 28.4531C14.4928 28.3956 14.6564 28.369 14.8204 28.3748C14.9845 28.3806 15.1459 28.4186 15.2952 28.4867C15.4446 28.5549 15.5791 28.6517 15.6911 28.7718C15.803 28.8919 15.8902 29.0329 15.9476 29.1867C16.0051 29.3405 16.0317 29.5041 16.0259 29.6682C16.0201 29.8323 15.9821 29.9936 15.914 30.143H15.9124Z" fill="white"/>
</svg>
