<svg width="26" height="27" viewBox="0 0 26 27" fill="none" xmlns="http://www.w3.org/2000/svg">
<path d="M15.5139 15.003C15.4276 14.9166 15.3252 14.8481 15.2125 14.8014C15.0998 14.7547 14.979 14.7306 14.8569 14.7306C14.7349 14.7306 14.6141 14.7547 14.5014 14.8014C14.3887 14.8481 14.2862 14.9166 14.2 15.003L12.0714 17.1328L9.66996 14.7314L11.7998 12.6027C11.974 12.4285 12.0719 12.1922 12.0719 11.9458C12.0719 11.6994 11.974 11.4631 11.7998 11.2889C11.6255 11.1146 11.3892 11.0167 11.1428 11.0167C10.8964 11.0167 10.6601 11.1146 10.4859 11.2889L8.35726 13.4187L6.22861 11.2889C6.05438 11.1146 5.81808 11.0167 5.57168 11.0167C5.32528 11.0167 5.08897 11.1146 4.91474 11.2889C4.74052 11.4631 4.64263 11.6994 4.64263 11.9458C4.64263 12.1922 4.74052 12.4285 4.91474 12.6027L5.65176 13.3386L2.94511 16.0441C2.60013 16.389 2.32648 16.7984 2.13977 17.2491C1.95307 17.6998 1.85697 18.1828 1.85697 18.6706C1.85697 19.1585 1.95307 19.6415 2.13977 20.0922C2.32648 20.5428 2.60013 20.9523 2.94511 21.2972L3.56954 21.9205L0.27211 25.2168C0.185841 25.303 0.117408 25.4054 0.0707191 25.5182C0.0240303 25.6309 0 25.7517 0 25.8737C0 25.9957 0.0240303 26.1165 0.0707191 26.2292C0.117408 26.3419 0.185841 26.4444 0.27211 26.5306C0.44634 26.7049 0.682646 26.8027 0.929043 26.8027C1.05105 26.8027 1.17186 26.7787 1.28457 26.732C1.39729 26.6853 1.49971 26.6169 1.58598 26.5306L4.88225 23.2332L5.50552 23.8576C5.85042 24.2026 6.25989 24.4763 6.71057 24.663C7.16124 24.8497 7.64428 24.9458 8.13209 24.9458C8.61991 24.9458 9.10294 24.8497 9.55361 24.663C10.0043 24.4763 10.4138 24.2026 10.7587 23.8576L13.4642 21.151L14.2 21.888C14.2863 21.9743 14.3887 22.0427 14.5014 22.0894C14.6141 22.1361 14.7349 22.1601 14.8569 22.1601C14.979 22.1601 15.0998 22.1361 15.2125 22.0894C15.3252 22.0427 15.4276 21.9743 15.5139 21.888C15.6002 21.8017 15.6686 21.6993 15.7153 21.5866C15.762 21.4739 15.786 21.3531 15.786 21.2311C15.786 21.1091 15.762 20.9882 15.7153 20.8755C15.6686 20.7628 15.6002 20.6604 15.5139 20.5741L13.3841 18.4455L15.5139 16.3168C15.6002 16.2306 15.6687 16.1282 15.7154 16.0155C15.7622 15.9027 15.7862 15.7819 15.7862 15.6599C15.7862 15.5379 15.7622 15.417 15.7154 15.3043C15.6687 15.1916 15.6002 15.0892 15.5139 15.003ZM9.44479 22.5472C9.09657 22.8952 8.6244 23.0907 8.13209 23.0907C7.63978 23.0907 7.16762 22.8952 6.81939 22.5472L4.25897 19.9833C3.91097 19.6351 3.71548 19.163 3.71548 18.6706C3.71548 18.1783 3.91097 17.7062 4.25897 17.3579L6.96447 14.6513L12.1515 19.8383L9.44479 22.5472ZM25.7277 1.07506C25.6414 0.988728 25.539 0.92024 25.4263 0.873513C25.3136 0.826786 25.1928 0.802734 25.0707 0.802734C24.9487 0.802734 24.8279 0.826786 24.7152 0.873513C24.6024 0.92024 24.5 0.988728 24.4138 1.07506L21.1175 4.37249L20.4943 3.74806C19.797 3.05276 18.8524 2.66232 17.8677 2.66232C16.883 2.66232 15.9384 3.05276 15.2411 3.74806L12.5356 6.45471L11.7998 5.71769C11.6255 5.54346 11.3892 5.44558 11.1428 5.44558C10.8964 5.44558 10.6601 5.54346 10.4859 5.71769C10.3117 5.89192 10.2138 6.12823 10.2138 6.37463C10.2138 6.62102 10.3117 6.85733 10.4859 7.03156L19.7712 16.3168C19.8574 16.4031 19.9599 16.4715 20.0726 16.5182C20.1853 16.5649 20.3061 16.5889 20.4281 16.5889C20.5501 16.5889 20.6709 16.5649 20.7836 16.5182C20.8964 16.4715 20.9988 16.4031 21.085 16.3168C21.1713 16.2306 21.2397 16.1281 21.2864 16.0154C21.3331 15.9027 21.3572 15.7819 21.3572 15.6599C21.3572 15.5379 21.3331 15.4171 21.2864 15.3044C21.2397 15.1916 21.1713 15.0892 21.085 15.003L20.348 14.2671L23.0547 11.5616C23.3997 11.2167 23.6733 10.8072 23.86 10.3566C24.0467 9.90589 24.1428 9.42285 24.1428 8.93504C24.1428 8.44722 24.0467 7.96419 23.86 7.51352C23.6733 7.06284 23.3997 6.65337 23.0547 6.30847L22.4302 5.68519L25.7277 2.38892C25.814 2.30269 25.8825 2.20028 25.9292 2.08756C25.9759 1.97484 26 1.85401 26 1.73199C26 1.60997 25.9759 1.48914 25.9292 1.37642C25.8825 1.2637 25.814 1.16129 25.7277 1.07506ZM21.7408 10.2443L19.0353 12.9544L13.8483 7.76742L16.555 5.06192C16.9032 4.71392 17.3754 4.51843 17.8677 4.51843C18.36 4.51843 18.8322 4.71392 19.1804 5.06192L21.7408 7.61537C21.9142 7.78793 22.0517 7.99303 22.1456 8.2189C22.2395 8.44477 22.2878 8.68696 22.2878 8.93156C22.2878 9.17616 22.2395 9.41835 22.1456 9.64422C22.0517 9.87009 21.9142 10.0752 21.7408 10.2477V10.2443Z" fill="#F0843C"/>
</svg>
