<svg width="28" height="29" viewBox="0 0 28 29" fill="none" xmlns="http://www.w3.org/2000/svg">
<path d="M25.6298 7.99487C25.5268 7.59165 25.3293 7.21872 25.0538 6.90684C24.7782 6.59496 24.4324 6.35306 24.045 6.20112C20.2956 4.75299 14.3281 4.76612 14 4.76612C13.6719 4.76612 7.70437 4.75299 3.955 6.20112C3.56755 6.35306 3.22179 6.59496 2.94623 6.90684C2.67067 7.21872 2.47322 7.59165 2.37016 7.99487C2.08688 9.08643 1.75 11.0814 1.75 14.3911C1.75 17.7008 2.08688 19.6958 2.37016 20.7874C2.47306 21.1908 2.67045 21.5639 2.94601 21.876C3.22158 22.1881 3.56743 22.4302 3.955 22.5822C7.54688 23.968 13.1687 24.0161 13.9278 24.0161H14.0722C14.8313 24.0161 20.4564 23.968 24.045 22.5822C24.4326 22.4302 24.7784 22.1881 25.054 21.876C25.3296 21.5639 25.5269 21.1908 25.6298 20.7874C25.9131 19.6936 26.25 17.7008 26.25 14.3911C26.25 11.0814 25.9131 9.08643 25.6298 7.99487ZM17.5645 15.1042L13.1895 18.1667C13.0587 18.2584 12.9052 18.3125 12.7457 18.3232C12.5863 18.3338 12.427 18.3006 12.2851 18.2271C12.1432 18.1536 12.0242 18.0427 11.9408 17.9063C11.8575 17.77 11.8131 17.6134 11.8125 17.4536V11.3286C11.8125 11.1685 11.8565 11.0116 11.9396 10.8747C12.0226 10.7379 12.1417 10.6265 12.2837 10.5526C12.4257 10.4788 12.5852 10.4452 12.7449 10.4557C12.9047 10.4663 13.0584 10.5204 13.1895 10.6122L17.5645 13.6747C17.6796 13.7554 17.7736 13.8627 17.8384 13.9874C17.9033 14.1121 17.9371 14.2506 17.9371 14.3911C17.9371 14.5317 17.9033 14.6702 17.8384 14.7949C17.7736 14.9196 17.6796 15.0268 17.5645 15.1075V15.1042Z" fill="white"/>
</svg>
