<svg width="41" height="41" viewBox="0 0 41 41" fill="none" xmlns="http://www.w3.org/2000/svg">
<g clip-path="url(#clip0_4097_13644)">
<path d="M39.8371 14.4875L21.0871 4.48749C20.9063 4.39119 20.7045 4.34082 20.4996 4.34082C20.2947 4.34082 20.093 4.39119 19.9121 4.48749L1.16211 14.4875C0.962116 14.5941 0.79486 14.753 0.678234 14.9473C0.561608 15.1416 0.5 15.364 0.5 15.5906C0.5 15.8172 0.561608 16.0396 0.678234 16.2339C0.79486 16.4282 0.962116 16.5872 1.16211 16.6937L5.49961 19.0078V26.5734C5.49831 27.1874 5.72428 27.7802 6.13398 28.2375C8.18086 30.5172 12.7668 34.3406 20.4996 34.3406C23.0636 34.3618 25.6084 33.8974 27.9996 32.9719V38.0906C27.9996 38.4221 28.1313 38.7401 28.3657 38.9745C28.6001 39.2089 28.9181 39.3406 29.2496 39.3406C29.5811 39.3406 29.8991 39.2089 30.1335 38.9745C30.3679 38.7401 30.4996 38.4221 30.4996 38.0906V31.764C32.1296 30.8231 33.6026 29.6332 34.8652 28.2375C35.2749 27.7802 35.5009 27.1874 35.4996 26.5734V19.0078L39.8371 16.6937C40.0371 16.5872 40.2044 16.4282 40.321 16.2339C40.4376 16.0396 40.4992 15.8172 40.4992 15.5906C40.4992 15.364 40.4376 15.1416 40.321 14.9473C40.2044 14.753 40.0371 14.5941 39.8371 14.4875ZM20.4996 31.8406C13.7387 31.8406 9.76211 28.5375 7.99961 26.5734V20.3406L19.9121 26.6937C20.093 26.79 20.2947 26.8404 20.4996 26.8404C20.7045 26.8404 20.9063 26.79 21.0871 26.6937L27.9996 23.0078V30.2484C26.0309 31.1672 23.5496 31.8406 20.4996 31.8406ZM32.9996 26.5672C32.2503 27.3987 31.4119 28.1453 30.4996 28.7937V21.6734L32.9996 20.3406V26.5672ZM29.8746 19.175L29.8402 19.1547L21.0902 14.4875C20.7983 14.3384 20.4595 14.3099 20.1468 14.4082C19.834 14.5065 19.5725 14.7238 19.4184 15.0131C19.2643 15.3024 19.23 15.6407 19.3229 15.9551C19.4159 16.2694 19.6286 16.5347 19.9152 16.6937L27.2184 20.5906L20.4996 24.1734L4.40586 15.5906L20.4996 7.0078L36.5934 15.5906L29.8746 19.175Z" fill="#F0843C"/>
</g>
<defs>
<clipPath id="clip0_4097_13644">
<rect width="40" height="40" fill="white" transform="translate(0.5 0.59082)"/>
</clipPath>
</defs>
</svg>
