<svg xmlns="http://www.w3.org/2000/svg" fill="none" viewBox="0 0 70 70">
<rect width="70" height="70" rx="45" fill="#329504"/>
<path d="M38.9375 42.875C35.8057 42.8715 32.8032 41.6259 30.5886 39.4113C28.3741 37.1968 27.1285 34.1943 27.125 31.0625C27.1247 30.1521 27.4399 29.2698 28.0169 28.5657C28.594 27.8615 29.3971 27.3791 30.2898 27.2004L32.1732 30.9739L30.1848 33.95L30.4555 34.6062C31.3945 36.8381 33.1701 38.6136 35.402 39.5527L36.0582 39.8234L39.0392 37.835L42.8127 39.7184C42.6319 40.6118 42.1468 41.4147 41.4401 41.9904C40.7334 42.566 39.8489 42.8786 38.9375 42.875Z" fill="white" stroke="white" stroke-width="3" stroke-linecap="round" stroke-linejoin="round"/>
<path d="M27.1135 48.6353C30.4219 50.55 34.3137 51.1962 38.0633 50.4535C41.813 49.7107 45.1645 47.6296 47.4931 44.5983C49.8217 41.5669 50.9684 37.7921 50.7194 33.9777C50.4704 30.1633 48.8427 26.5697 46.1398 23.8667C43.4369 21.1638 39.8432 19.5361 36.0288 19.2871C32.2144 19.0381 28.4397 20.1848 25.4083 22.5134C22.3769 24.842 20.2959 28.1936 19.5531 31.9432C18.8103 35.6929 19.4565 39.5847 21.3713 42.8931L19.3189 49.0208C19.2418 49.2521 19.2306 49.5002 19.2866 49.7375C19.3425 49.9748 19.4635 50.1917 19.6359 50.3641C19.8083 50.5365 20.0252 50.6574 20.2625 50.7134C20.4998 50.7694 20.7479 50.7582 20.9792 50.6811L27.1135 48.6353Z" stroke="white" stroke-width="3" stroke-linecap="round" stroke-linejoin="round"/>
</svg>