<svg width="32" height="32" viewBox="0 0 32 32" fill="none" xmlns="http://www.w3.org/2000/svg">
<path d="M31.725 2.95761C31.688 2.34812 31.4292 1.77326 30.9974 1.34149C30.5656 0.909719 29.9908 0.650898 29.3813 0.613859C27.4156 0.496671 22.3922 0.676358 18.2235 4.84355L17.4813 5.59511H8.36721C8.03764 5.59325 7.711 5.65694 7.40628 5.78248C7.10155 5.90802 6.82483 6.0929 6.59221 6.32636L1.23283 11.6889C0.90416 12.0173 0.673526 12.4309 0.566817 12.8831C0.460108 13.3353 0.481547 13.8084 0.628729 14.2491C0.77591 14.6898 1.04301 15.0808 1.40005 15.3782C1.75709 15.6756 2.18994 15.8676 2.65002 15.9326L8.66096 16.7717L15.5688 23.6795L16.4078 29.6935C16.4724 30.1537 16.6643 30.5865 16.9619 30.9433C17.2596 31.3 17.6511 31.5664 18.0922 31.7123C18.3491 31.7981 18.6182 31.8419 18.8891 31.842C19.2171 31.8426 19.5419 31.7783 19.845 31.6528C20.148 31.5273 20.4232 31.3431 20.6547 31.1107L26.0172 25.7514C26.2507 25.5187 26.4355 25.242 26.5611 24.9373C26.6866 24.6326 26.7503 24.3059 26.7485 23.9764V14.8623L27.4938 14.117C31.6625 9.94823 31.8422 4.9248 31.725 2.95761ZM8.36721 8.09511H14.9813L8.80471 14.2701L2.99846 13.4607L8.36721 8.09511ZM19.9938 6.61855C21.1949 5.41001 22.6401 4.47168 24.2328 3.86623C25.8255 3.26078 27.5291 3.00215 29.2297 3.10761C29.3392 4.80914 29.0833 6.51441 28.4791 8.1088C27.8748 9.7032 26.9363 11.1498 25.7266 12.3514L16.7485 21.3264L11.0172 15.5951L19.9938 6.61855ZM24.2485 23.9764L18.8844 29.3451L18.0735 23.5373L24.2485 17.3623V23.9764ZM12.661 25.4607C11.9578 27.0014 9.60627 30.5951 2.99846 30.5951C2.66694 30.5951 2.349 30.4634 2.11458 30.229C1.88016 29.9946 1.74846 29.6766 1.74846 29.3451C1.74846 22.7373 5.34221 20.3857 6.88283 19.681C7.03221 19.6129 7.19355 19.5749 7.35763 19.5691C7.5217 19.5633 7.68531 19.5899 7.83911 19.6474C7.9929 19.7049 8.13388 19.792 8.25398 19.904C8.37408 20.0159 8.47096 20.1504 8.53908 20.2998C8.60721 20.4492 8.64524 20.6105 8.65102 20.7746C8.65679 20.9387 8.63019 21.1023 8.57273 21.2561C8.51527 21.4099 8.42809 21.5508 8.31615 21.6709C8.20421 21.791 8.06971 21.8879 7.92033 21.956C6.91565 22.4139 4.69846 23.8873 4.30783 28.0357C8.45627 27.6451 9.93283 25.4279 10.3875 24.4232C10.4556 24.2739 10.5525 24.1394 10.6726 24.0274C10.7927 23.9155 10.9337 23.8283 11.0875 23.7708C11.2413 23.7134 11.4049 23.6868 11.569 23.6926C11.7331 23.6983 11.8944 23.7364 12.0438 23.8045C12.1932 23.8726 12.3276 23.9695 12.4396 24.0896C12.5515 24.2097 12.6387 24.3507 12.6962 24.5045C12.7536 24.6583 12.7802 24.8219 12.7745 24.9859C12.7687 25.15 12.7306 25.3114 12.6625 25.4607H12.661Z" fill="#F0843C"/>
</svg>
