<svg width="53" height="53" viewBox="0 0 53 53" fill="none" xmlns="http://www.w3.org/2000/svg">
<rect x="0.720001" y="0.5" width="52" height="52" rx="26" fill="#EB315A"/>
<path d="M22.1694 15.6665H31.2694C34.736 15.6665 37.5527 18.4832 37.5527 21.9498V31.0498C37.5527 32.7163 36.8907 34.3145 35.7123 35.4928C34.534 36.6712 32.9358 37.3332 31.2694 37.3332H22.1694C18.7027 37.3332 15.886 34.5165 15.886 31.0498V21.9498C15.886 20.2834 16.548 18.6852 17.7264 17.5068C18.9047 16.3285 20.5029 15.6665 22.1694 15.6665ZM21.9527 17.8332C20.9183 17.8332 19.9264 18.2441 19.195 18.9755C18.4636 19.7068 18.0527 20.6988 18.0527 21.7332V31.2665C18.0527 33.4223 19.7968 35.1665 21.9527 35.1665H31.486C32.5204 35.1665 33.5123 34.7556 34.2437 34.0242C34.9751 33.2928 35.386 32.3008 35.386 31.2665V21.7332C35.386 19.5773 33.6418 17.8332 31.486 17.8332H21.9527ZM32.4068 19.4582C32.766 19.4582 33.1104 19.6008 33.3644 19.8548C33.6183 20.1088 33.761 20.4532 33.761 20.8123C33.761 21.1715 33.6183 21.5159 33.3644 21.7699C33.1104 22.0238 32.766 22.1665 32.4068 22.1665C32.0477 22.1665 31.7033 22.0238 31.4493 21.7699C31.1954 21.5159 31.0527 21.1715 31.0527 20.8123C31.0527 20.4532 31.1954 20.1088 31.4493 19.8548C31.7033 19.6008 32.0477 19.4582 32.4068 19.4582ZM26.7193 21.0832C28.1559 21.0832 29.5337 21.6539 30.5495 22.6697C31.5653 23.6855 32.136 25.0632 32.136 26.4998C32.136 27.9364 31.5653 29.3142 30.5495 30.33C29.5337 31.3458 28.1559 31.9165 26.7193 31.9165C25.2828 31.9165 23.905 31.3458 22.8892 30.33C21.8734 29.3142 21.3027 27.9364 21.3027 26.4998C21.3027 25.0632 21.8734 23.6855 22.8892 22.6697C23.905 21.6539 25.2828 21.0832 26.7193 21.0832ZM26.7193 23.2498C25.8574 23.2498 25.0307 23.5922 24.4213 24.2017C23.8118 24.8112 23.4693 25.6379 23.4693 26.4998C23.4693 27.3618 23.8118 28.1884 24.4213 28.7979C25.0307 29.4074 25.8574 29.7498 26.7193 29.7498C27.5813 29.7498 28.408 29.4074 29.0174 28.7979C29.6269 28.1884 29.9693 27.3618 29.9693 26.4998C29.9693 25.6379 29.6269 24.8112 29.0174 24.2017C28.408 23.5922 27.5813 23.2498 26.7193 23.2498Z" fill="white"/>
</svg>
