<svg width="53" height="53" viewBox="0 0 53 53" fill="none" xmlns="http://www.w3.org/2000/svg">
<rect x="0.720001" y="0.5" width="52" height="52" rx="26" fill="#EB315A"/>
<path d="M34.3033 16.75C34.878 16.75 35.4291 16.9783 35.8354 17.3846C36.2417 17.7909 36.47 18.342 36.47 18.9167V34.0833C36.47 34.658 36.2417 35.2091 35.8354 35.6154C35.4291 36.0217 34.878 36.25 34.3033 36.25H19.1367C18.562 36.25 18.0109 36.0217 17.6046 35.6154C17.1983 35.2091 16.97 34.658 16.97 34.0833V18.9167C16.97 18.342 17.1983 17.7909 17.6046 17.3846C18.0109 16.9783 18.562 16.75 19.1367 16.75H34.3033ZM33.7617 33.5417V27.8C33.7617 26.8633 33.3896 25.9651 32.7273 25.3027C32.065 24.6404 31.1667 24.2683 30.23 24.2683C29.3092 24.2683 28.2367 24.8317 27.7167 25.6767V24.4742H24.6942V33.5417H27.7167V28.2008C27.7167 27.3667 28.3883 26.6842 29.2225 26.6842C29.6247 26.6842 30.0105 26.844 30.2949 27.1284C30.5794 27.4128 30.7392 27.7986 30.7392 28.2008V33.5417H33.7617ZM21.1733 22.7733C21.656 22.7733 22.119 22.5816 22.4603 22.2403C22.8016 21.899 22.9933 21.436 22.9933 20.9533C22.9933 19.9458 22.1808 19.1225 21.1733 19.1225C20.6878 19.1225 20.2221 19.3154 19.8787 19.6587C19.5354 20.0021 19.3425 20.4678 19.3425 20.9533C19.3425 21.9608 20.1658 22.7733 21.1733 22.7733ZM22.6792 33.5417V24.4742H19.6783V33.5417H22.6792Z" fill="white"/>
</svg>
