<svg width="41" height="31" viewBox="0 0 41 31" fill="none" xmlns="http://www.w3.org/2000/svg">
<path d="M39.0714 0.59082H26.2143C25.1054 0.59082 24.0117 0.816727 23.0199 1.25065C22.0281 1.68457 21.1653 2.31459 20.5 3.09082C19.8347 2.31459 18.9719 1.68457 17.9801 1.25065C16.9883 0.816727 15.8946 0.59082 14.7857 0.59082H1.92857C1.54969 0.59082 1.18633 0.722517 0.918419 0.956937C0.65051 1.19136 0.5 1.5093 0.5 1.84082V24.3408C0.5 24.6723 0.65051 24.9903 0.918419 25.2247C1.18633 25.4591 1.54969 25.5908 1.92857 25.5908H14.7857C15.9224 25.5908 17.0124 25.9859 17.8162 26.6892C18.6199 27.3924 19.0714 28.3463 19.0714 29.3408C19.0714 29.6723 19.2219 29.9903 19.4898 30.2247C19.7578 30.4591 20.1211 30.5908 20.5 30.5908C20.8789 30.5908 21.2422 30.4591 21.5102 30.2247C21.7781 29.9903 21.9286 29.6723 21.9286 29.3408C21.9286 28.3463 22.3801 27.3924 23.1838 26.6892C23.9876 25.9859 25.0776 25.5908 26.2143 25.5908H39.0714C39.4503 25.5908 39.8137 25.4591 40.0816 25.2247C40.3495 24.9903 40.5 24.6723 40.5 24.3408V1.84082C40.5 1.5093 40.3495 1.19136 40.0816 0.956937C39.8137 0.722517 39.4503 0.59082 39.0714 0.59082ZM14.7857 23.0908H3.35714V3.09082H14.7857C15.9224 3.09082 17.0124 3.48591 17.8162 4.18917C18.6199 4.89243 19.0714 5.84626 19.0714 6.84082V24.3408C17.8362 23.5275 16.3316 23.0887 14.7857 23.0908ZM37.6429 23.0908H26.2143C24.6684 23.0887 23.1638 23.5275 21.9286 24.3408V6.84082C21.9286 5.84626 22.3801 4.89243 23.1838 4.18917C23.9876 3.48591 25.0776 3.09082 26.2143 3.09082H37.6429V23.0908ZM26.2143 6.84082H33.3571C33.736 6.84082 34.0994 6.97252 34.3673 7.20694C34.6352 7.44136 34.7857 7.7593 34.7857 8.09082C34.7857 8.42234 34.6352 8.74028 34.3673 8.9747C34.0994 9.20912 33.736 9.34082 33.3571 9.34082H26.2143C25.8354 9.34082 25.472 9.20912 25.2041 8.9747C24.9362 8.74028 24.7857 8.42234 24.7857 8.09082C24.7857 7.7593 24.9362 7.44136 25.2041 7.20694C25.472 6.97252 25.8354 6.84082 26.2143 6.84082ZM34.7857 13.0908C34.7857 13.4223 34.6352 13.7403 34.3673 13.9747C34.0994 14.2091 33.736 14.3408 33.3571 14.3408H26.2143C25.8354 14.3408 25.472 14.2091 25.2041 13.9747C24.9362 13.7403 24.7857 13.4223 24.7857 13.0908C24.7857 12.7593 24.9362 12.4414 25.2041 12.2069C25.472 11.9725 25.8354 11.8408 26.2143 11.8408H33.3571C33.736 11.8408 34.0994 11.9725 34.3673 12.2069C34.6352 12.4414 34.7857 12.7593 34.7857 13.0908ZM34.7857 18.0908C34.7857 18.4223 34.6352 18.7403 34.3673 18.9747C34.0994 19.2091 33.736 19.3408 33.3571 19.3408H26.2143C25.8354 19.3408 25.472 19.2091 25.2041 18.9747C24.9362 18.7403 24.7857 18.4223 24.7857 18.0908C24.7857 17.7593 24.9362 17.4414 25.2041 17.2069C25.472 16.9725 25.8354 16.8408 26.2143 16.8408H33.3571C33.736 16.8408 34.0994 16.9725 34.3673 17.2069C34.6352 17.4414 34.7857 17.7593 34.7857 18.0908Z" fill="#F0843C"/>
</svg>
