<svg width="20" height="21" viewBox="0 0 20 21" fill="none" xmlns="http://www.w3.org/2000/svg">
<path opacity="0.2" d="M7.22656 10.2599C7.8697 11.588 8.94366 12.6592 10.2734 13.299C10.3715 13.3454 10.48 13.3655 10.5882 13.3573C10.6965 13.3491 10.8007 13.3128 10.8906 13.2521L12.8437 11.9474C12.93 11.8889 13.0298 11.8532 13.1336 11.8436C13.2374 11.834 13.342 11.8509 13.4375 11.8927L17.0938 13.463C17.2187 13.515 17.3231 13.6067 17.3909 13.7239C17.4586 13.841 17.486 13.9772 17.4688 14.1115C17.3529 15.016 16.9114 15.8472 16.2269 16.4497C15.5424 17.0522 14.6619 17.3847 13.75 17.3849C10.9321 17.3849 8.22956 16.2655 6.23699 14.2729C4.24442 12.2803 3.125 9.57784 3.125 6.75991C3.12521 5.84804 3.45767 4.96748 4.06018 4.283C4.66269 3.59853 5.49395 3.15705 6.39844 3.04116C6.53269 3.02392 6.66888 3.05128 6.78605 3.11904C6.90322 3.1868 6.99487 3.2912 7.04687 3.41616L8.61719 7.08023C8.65802 7.17425 8.67511 7.27687 8.66693 7.37905C8.65876 7.48123 8.62558 7.57983 8.57031 7.66616L7.26562 9.65054C7.20754 9.74029 7.17345 9.84344 7.16661 9.95013C7.15977 10.0568 7.18041 10.1635 7.22656 10.2599Z" fill="#6B60E6"/>
<path d="M7.22656 10.2599C7.8697 11.588 8.94366 12.6592 10.2734 13.299C10.3715 13.3454 10.48 13.3655 10.5882 13.3573C10.6965 13.3491 10.8007 13.3128 10.8906 13.2521L12.8437 11.9474C12.93 11.8889 13.0298 11.8532 13.1336 11.8436C13.2374 11.834 13.342 11.8509 13.4375 11.8927L17.0938 13.463C17.2187 13.515 17.3231 13.6067 17.3909 13.7239C17.4586 13.841 17.486 13.9772 17.4688 14.1115C17.3529 15.016 16.9114 15.8472 16.2269 16.4497C15.5424 17.0522 14.6619 17.3847 13.75 17.3849C10.9321 17.3849 8.22956 16.2655 6.23699 14.2729C4.24442 12.2803 3.125 9.57784 3.125 6.75991C3.12521 5.84804 3.45767 4.96748 4.06018 4.283C4.66269 3.59853 5.49395 3.15705 6.39844 3.04116C6.53269 3.02392 6.66888 3.05128 6.78605 3.11904C6.90322 3.1868 6.99487 3.2912 7.04687 3.41616L8.61719 7.08023C8.65802 7.17425 8.67511 7.27687 8.66693 7.37905C8.65876 7.48123 8.62558 7.57983 8.57031 7.66616L7.26562 9.65054C7.20754 9.74029 7.17345 9.84344 7.16661 9.95013C7.15977 10.0568 7.18041 10.1635 7.22656 10.2599Z" stroke="#6B60E6" stroke-width="0.740741" stroke-linecap="round" stroke-linejoin="round"/>
<path d="M12.4531 3.63477C13.5132 3.91928 14.4799 4.47762 15.256 5.25376C16.0321 6.0299 16.5905 6.99653 16.875 8.05664" stroke="#6B60E6" stroke-width="0.740741" stroke-linecap="round" stroke-linejoin="round"/>
<path d="M11.8047 6.04883C12.4423 6.21816 13.0238 6.55303 13.4903 7.01951C13.9567 7.48599 14.2916 8.06748 14.4609 8.70508" stroke="#6B60E6" stroke-width="0.740741" stroke-linecap="round" stroke-linejoin="round"/>
</svg>
