<svg width="20" height="21" viewBox="0 0 20 21" fill="none" xmlns="http://www.w3.org/2000/svg">
<path opacity="0.2" d="M10 13.0098C12.7614 13.0098 15 10.7712 15 8.00977C15 5.24834 12.7614 3.00977 10 3.00977C7.23858 3.00977 5 5.24834 5 8.00977C5 10.7712 7.23858 13.0098 10 13.0098Z" fill="#6B60E6"/>
<path d="M10 13.0098C12.7614 13.0098 15 10.7712 15 8.00977C15 5.24834 12.7614 3.00977 10 3.00977C7.23858 3.00977 5 5.24834 5 8.00977C5 10.7712 7.23858 13.0098 10 13.0098Z" stroke="#6B60E6" stroke-width="0.740741" stroke-miterlimit="10"/>
<path d="M2.42188 17.3845C3.18979 16.0541 4.2944 14.9494 5.62465 14.1813C6.9549 13.4132 8.46392 13.0088 10 13.0088C11.5361 13.0088 13.0451 13.4132 14.3753 14.1813C15.7056 14.9494 16.8102 16.0541 17.5781 17.3845" stroke="#6B60E6" stroke-width="0.740741" stroke-linecap="round" stroke-linejoin="round"/>
</svg>
